<?xml version="1.0" encoding="UTF-8" standalone="no"?>
<!-- Created with Inkscape (http://www.inkscape.org/) -->

<svg
   xmlns:dc="http://purl.org/dc/elements/1.1/"
   xmlns:cc="http://creativecommons.org/ns#"
   xmlns:rdf="http://www.w3.org/1999/02/22-rdf-syntax-ns#"
   xmlns:svg="http://www.w3.org/2000/svg"
   xmlns="http://www.w3.org/2000/svg"
   xmlns:sodipodi="http://sodipodi.sourceforge.net/DTD/sodipodi-0.dtd"
   xmlns:inkscape="http://www.inkscape.org/namespaces/inkscape"
   width="74.26754mm"
   height="53.231007mm"
   viewBox="0 0 74.26754 53.231006"
   version="1.1"
   id="svg41272"
   inkscape:version="0.92.3 (2405546, 2018-03-11)"
   sodipodi:docname="correlation.svg">
  <defs
     id="defs41266">
    <clipPath
       id="clipPath41336"
       clipPathUnits="userSpaceOnUse">
      <path
         inkscape:connector-curvature="0"
         id="path41334"
         d="m 202.094,217.973 h 19.707 v -11.871 h -19.707 z" />
    </clipPath>
    <clipPath
       id="clipPath41346"
       clipPathUnits="userSpaceOnUse">
      <path
         inkscape:connector-curvature="0"
         id="path41344"
         d="m 209,211 h 6 v 1 h -6 z" />
    </clipPath>
    <clipPath
       id="clipPath41368"
       clipPathUnits="userSpaceOnUse">
      <path
         inkscape:connector-curvature="0"
         id="path41366"
         d="m 191.285,207.473 h 19.703 v -11.871 h -19.703 z" />
    </clipPath>
    <clipPath
       id="clipPath41378"
       clipPathUnits="userSpaceOnUse">
      <path
         inkscape:connector-curvature="0"
         id="path41376"
         d="m 199,200 h 5 v 2 h -5 z" />
    </clipPath>
    <clipPath
       id="clipPath41516"
       clipPathUnits="userSpaceOnUse">
      <path
         inkscape:connector-curvature="0"
         id="path41514"
         d="M 11.301,335.965 H 234.5 V 166.363 H 11.301 Z" />
    </clipPath>
    <clipPath
       id="clipPath41526"
       clipPathUnits="userSpaceOnUse">
      <path
         inkscape:connector-curvature="0"
         id="path41524"
         d="m 50,216 h 64 v 99 H 50 Z" />
    </clipPath>
    <clipPath
       id="clipPath42336"
       clipPathUnits="userSpaceOnUse">
      <path
         inkscape:connector-curvature="0"
         id="path42334"
         d="m 77,208 h 64 v 68 H 77 Z" />
    </clipPath>
    <clipPath
       id="clipPath43146"
       clipPathUnits="userSpaceOnUse">
      <path
         inkscape:connector-curvature="0"
         id="path43144"
         d="m 135,199 h 61 v 62 h -61 z" />
    </clipPath>
    <clipPath
       id="clipPath43956"
       clipPathUnits="userSpaceOnUse">
      <path
         inkscape:connector-curvature="0"
         id="path43954"
         d="m 148,204 h 59 v 59 h -59 z" />
    </clipPath>
    <clipPath
       id="clipPath43970"
       clipPathUnits="userSpaceOnUse">
      <path
         inkscape:connector-curvature="0"
         id="path43968"
         d="m 135,204 h 60 v 46 h -60 z" />
    </clipPath>
    <clipPath
       id="clipPath43984"
       clipPathUnits="userSpaceOnUse">
      <path
         inkscape:connector-curvature="0"
         id="path43982"
         d="m 78,215 h 63 v 48 H 78 Z" />
    </clipPath>
    <clipPath
       id="clipPath43998"
       clipPathUnits="userSpaceOnUse">
      <path
         inkscape:connector-curvature="0"
         id="path43996"
         d="m 49,236 h 65 v 55 H 49 Z" />
    </clipPath>
    <clipPath
       id="clipPath44012"
       clipPathUnits="userSpaceOnUse">
      <path
         inkscape:connector-curvature="0"
         id="path44010"
         d="m 148,190 h 60 v 87 h -60 z" />
    </clipPath>
    <clipPath
       id="clipPath44888"
       clipPathUnits="userSpaceOnUse">
      <path
         inkscape:connector-curvature="0"
         id="path44886"
         d="M 104.258,11.09 H 128.34 V -0.035 h -24.082 z" />
    </clipPath>
    <clipPath
       id="clipPath44898"
       clipPathUnits="userSpaceOnUse">
      <path
         inkscape:connector-curvature="0"
         id="path44896"
         d="m 114,1 h 5 v 6 h -5 z" />
    </clipPath>
    <clipPath
       id="clipPath44952"
       clipPathUnits="userSpaceOnUse">
      <path
         inkscape:connector-curvature="0"
         id="path44950"
         d="M 33.809,148.441 H 211.993 V 25.804 H 33.809 Z" />
    </clipPath>
    <clipPath
       id="clipPath44962"
       clipPathUnits="userSpaceOnUse">
      <path
         inkscape:connector-curvature="0"
         id="path44960"
         d="m 33,29 h 180 v 99 H 33 Z" />
    </clipPath>
    <clipPath
       id="clipPath44976"
       clipPathUnits="userSpaceOnUse">
      <path
         inkscape:connector-curvature="0"
         id="path44974"
         d="m 33,27 h 180 v 94 H 33 Z" />
    </clipPath>
    <clipPath
       id="clipPath45054"
       clipPathUnits="userSpaceOnUse">
      <path
         inkscape:connector-curvature="0"
         id="path45052"
         d="M 81.859,144.605 H 197.058 V 62.523 H 81.859 Z" />
    </clipPath>
    <clipPath
       id="clipPath45064"
       clipPathUnits="userSpaceOnUse">
      <path
         inkscape:connector-curvature="0"
         id="path45062"
         d="m 81,59 h 120 v 81 H 81 Z" />
    </clipPath>
  </defs>
  <sodipodi:namedview
     id="base"
     pagecolor="#ffffff"
     bordercolor="#666666"
     borderopacity="1.0"
     inkscape:pageopacity="0.0"
     inkscape:pageshadow="2"
     inkscape:zoom="2.8"
     inkscape:cx="178.34956"
     inkscape:cy="129.01245"
     inkscape:document-units="mm"
     inkscape:current-layer="layer1"
     showgrid="false"
     fit-margin-top="0"
     fit-margin-left="0"
     fit-margin-right="0"
     fit-margin-bottom="0"
     inkscape:window-width="1920"
     inkscape:window-height="1017"
     inkscape:window-x="-8"
     inkscape:window-y="-8"
     inkscape:window-maximized="1" />
  <metadata
     id="metadata41269">
    <rdf:RDF>
      <cc:Work
         rdf:about="">
        <dc:format>image/svg+xml</dc:format>
        <dc:type
           rdf:resource="http://purl.org/dc/dcmitype/StillImage" />
        <dc:title></dc:title>
      </cc:Work>
    </rdf:RDF>
  </metadata>
  <g
     inkscape:label="Ebene 1"
     inkscape:groupmode="layer"
     id="layer1"
     transform="translate(-52.8988,-104.21401)">
    <path
       inkscape:connector-curvature="0"
       id="path44816"
       style="fill:#ffffff;fill-opacity:1;fill-rule:nonzero;stroke:none;stroke-width:0.35277778"
       d="m 63.778074,105.07834 h 62.859356 v 43.2636 H 63.778074 Z" />
    <path
       inkscape:connector-curvature="0"
       id="path44818"
       style="fill:none;stroke:#000000;stroke-width:0.28222221;stroke-linecap:butt;stroke-linejoin:round;stroke-miterlimit:10;stroke-dasharray:none;stroke-opacity:1"
       d="m 63.778074,148.34159 v 1.23472" />
    <text
       id="text44822"
       style="font-variant:normal;font-weight:normal;font-size:2.46944427px;font-family:'DejaVu Sans';-inkscape-font-specification:DejaVuSans;writing-mode:lr-tb;fill:#000000;fill-opacity:1;fill-rule:nonzero;stroke:none;stroke-width:0.35277778"
       x="61.815395"
       y="152.68527">
      <tspan
         id="tspan44820"
         sodipodi:role="line"
         y="152.68527"
         x="61.815395 63.385963 64.168777"
         style="stroke-width:0.35277778">0.0</tspan>
    </text>
    <path
       inkscape:connector-curvature="0"
       id="path44824"
       style="fill:none;stroke:#000000;stroke-width:0.28222221;stroke-linecap:butt;stroke-linejoin:round;stroke-miterlimit:10;stroke-dasharray:none;stroke-opacity:1"
       d="m 72.578115,148.34159 v 1.23472" />
    <text
       id="text44828"
       style="font-variant:normal;font-weight:normal;font-size:2.46944427px;font-family:'DejaVu Sans';-inkscape-font-specification:DejaVuSans;writing-mode:lr-tb;fill:#000000;fill-opacity:1;fill-rule:nonzero;stroke:none;stroke-width:0.35277778"
       x="70.615746"
       y="152.68527">
      <tspan
         id="tspan44826"
         sodipodi:role="line"
         y="152.68527"
         x="70.615746 72.186317 72.969131"
         style="stroke-width:0.35277778">0.5</tspan>
    </text>
    <path
       inkscape:connector-curvature="0"
       id="path44830"
       style="fill:none;stroke:#000000;stroke-width:0.28222221;stroke-linecap:butt;stroke-linejoin:round;stroke-miterlimit:10;stroke-dasharray:none;stroke-opacity:1"
       d="m 81.378157,148.34159 v 1.23472" />
    <text
       id="text44834"
       style="font-variant:normal;font-weight:normal;font-size:2.46944427px;font-family:'DejaVu Sans';-inkscape-font-specification:DejaVuSans;writing-mode:lr-tb;fill:#000000;fill-opacity:1;fill-rule:nonzero;stroke:none;stroke-width:0.35277778"
       x="79.4161"
       y="152.68527">
      <tspan
         id="tspan44832"
         sodipodi:role="line"
         y="152.68527"
         x="79.4161 80.986671 81.769485"
         style="stroke-width:0.35277778">1.0</tspan>
    </text>
    <path
       inkscape:connector-curvature="0"
       id="path44836"
       style="fill:none;stroke:#000000;stroke-width:0.28222221;stroke-linecap:butt;stroke-linejoin:round;stroke-miterlimit:10;stroke-dasharray:none;stroke-opacity:1"
       d="m 90.178551,148.34159 v 1.23472" />
    <text
       id="text44840"
       style="font-variant:normal;font-weight:normal;font-size:2.46944427px;font-family:'DejaVu Sans';-inkscape-font-specification:DejaVuSans;writing-mode:lr-tb;fill:#000000;fill-opacity:1;fill-rule:nonzero;stroke:none;stroke-width:0.35277778"
       x="88.216454"
       y="152.68527">
      <tspan
         id="tspan44838"
         sodipodi:role="line"
         y="152.68527"
         x="88.216454 89.787018 90.569832"
         style="stroke-width:0.35277778">1.5</tspan>
    </text>
    <path
       inkscape:connector-curvature="0"
       id="path44842"
       style="fill:none;stroke:#000000;stroke-width:0.28222221;stroke-linecap:butt;stroke-linejoin:round;stroke-miterlimit:10;stroke-dasharray:none;stroke-opacity:1"
       d="m 98.978592,148.34159 v 1.23472" />
    <text
       id="text44846"
       style="font-variant:normal;font-weight:normal;font-size:2.46944427px;font-family:'DejaVu Sans';-inkscape-font-specification:DejaVuSans;writing-mode:lr-tb;fill:#000000;fill-opacity:1;fill-rule:nonzero;stroke:none;stroke-width:0.35277778"
       x="97.016808"
       y="152.68527">
      <tspan
         id="tspan44844"
         sodipodi:role="line"
         y="152.68527"
         x="97.016808 98.587372 99.370186"
         style="stroke-width:0.35277778">2.0</tspan>
    </text>
    <path
       inkscape:connector-curvature="0"
       id="path44848"
       style="fill:none;stroke:#000000;stroke-width:0.28222221;stroke-linecap:butt;stroke-linejoin:round;stroke-miterlimit:10;stroke-dasharray:none;stroke-opacity:1"
       d="m 107.78004,148.34159 v 1.23472" />
    <text
       id="text44852"
       style="font-variant:normal;font-weight:normal;font-size:2.46944427px;font-family:'DejaVu Sans';-inkscape-font-specification:DejaVuSans;writing-mode:lr-tb;fill:#000000;fill-opacity:1;fill-rule:nonzero;stroke:none;stroke-width:0.35277778"
       x="105.81716"
       y="152.68527">
      <tspan
         id="tspan44850"
         sodipodi:role="line"
         y="152.68527"
         x="105.81716 107.38773 108.17054"
         style="stroke-width:0.35277778">2.5</tspan>
    </text>
    <path
       inkscape:connector-curvature="0"
       id="path44854"
       style="fill:none;stroke:#000000;stroke-width:0.28222221;stroke-linecap:butt;stroke-linejoin:round;stroke-miterlimit:10;stroke-dasharray:none;stroke-opacity:1"
       d="m 116.58009,148.34159 v 1.23472" />
    <text
       id="text44858"
       style="font-variant:normal;font-weight:normal;font-size:2.46944427px;font-family:'DejaVu Sans';-inkscape-font-specification:DejaVuSans;writing-mode:lr-tb;fill:#000000;fill-opacity:1;fill-rule:nonzero;stroke:none;stroke-width:0.35277778"
       x="114.61751"
       y="152.68527">
      <tspan
         id="tspan44856"
         sodipodi:role="line"
         y="152.68527"
         x="114.61751 116.18808 116.97089"
         style="stroke-width:0.35277778">3.0</tspan>
    </text>
    <path
       inkscape:connector-curvature="0"
       id="path44860"
       style="fill:none;stroke:#000000;stroke-width:0.28222221;stroke-linecap:butt;stroke-linejoin:round;stroke-miterlimit:10;stroke-dasharray:none;stroke-opacity:1"
       d="m 125.38048,148.34159 v 1.23472" />
    <text
       id="text44864"
       style="font-variant:normal;font-weight:normal;font-size:2.46944427px;font-family:'DejaVu Sans';-inkscape-font-specification:DejaVuSans;writing-mode:lr-tb;fill:#000000;fill-opacity:1;fill-rule:nonzero;stroke:none;stroke-width:0.35277778"
       x="123.41786"
       y="152.68527">
      <tspan
         id="tspan44862"
         sodipodi:role="line"
         y="152.68527"
         x="123.41786 124.98843 125.77124"
         style="stroke-width:0.35277778">3.5</tspan>
    </text>
    <path
       inkscape:connector-curvature="0"
       id="path44906"
       style="fill:none;stroke:#000000;stroke-width:0.28222221;stroke-linecap:butt;stroke-linejoin:round;stroke-miterlimit:10;stroke-dasharray:none;stroke-opacity:1"
       d="M 63.778074,148.34159 H 62.543351" />
    <text
       id="text44910"
       style="font-variant:normal;font-weight:normal;font-size:2.46944427px;font-family:'DejaVu Sans';-inkscape-font-specification:DejaVuSans;writing-mode:lr-tb;fill:#000000;fill-opacity:1;fill-rule:nonzero;stroke:none;stroke-width:0.35277778"
       x="57.383625"
       y="149.27876">
      <tspan
         id="tspan44908"
         sodipodi:role="line"
         y="149.27876"
         x="57.383625 58.954193 59.737007"
         style="stroke-width:0.35277778">1.0</tspan>
    </text>
    <path
       inkscape:connector-curvature="0"
       id="path44912"
       style="fill:none;stroke:#000000;stroke-width:0.28222221;stroke-linecap:butt;stroke-linejoin:round;stroke-miterlimit:10;stroke-dasharray:none;stroke-opacity:1"
       d="M 63.778074,139.68901 H 62.543351" />
    <text
       id="text44916"
       style="font-variant:normal;font-weight:normal;font-size:2.46944427px;font-family:'DejaVu Sans';-inkscape-font-specification:DejaVuSans;writing-mode:lr-tb;fill:#000000;fill-opacity:1;fill-rule:nonzero;stroke:none;stroke-width:0.35277778"
       x="57.383625"
       y="140.6261">
      <tspan
         id="tspan44914"
         sodipodi:role="line"
         y="140.6261"
         x="57.383625 58.954193 59.737007"
         style="stroke-width:0.35277778">1.1</tspan>
    </text>
    <path
       inkscape:connector-curvature="0"
       id="path44918"
       style="fill:none;stroke:#000000;stroke-width:0.28222221;stroke-linecap:butt;stroke-linejoin:round;stroke-miterlimit:10;stroke-dasharray:none;stroke-opacity:1"
       d="M 63.778074,131.03643 H 62.543351" />
    <text
       id="text44922"
       style="font-variant:normal;font-weight:normal;font-size:2.46944427px;font-family:'DejaVu Sans';-inkscape-font-specification:DejaVuSans;writing-mode:lr-tb;fill:#000000;fill-opacity:1;fill-rule:nonzero;stroke:none;stroke-width:0.35277778"
       x="57.383625"
       y="131.97343">
      <tspan
         id="tspan44920"
         sodipodi:role="line"
         y="131.97343"
         x="57.383625 58.954193 59.737007"
         style="stroke-width:0.35277778">1.2</tspan>
    </text>
    <path
       inkscape:connector-curvature="0"
       id="path44924"
       style="fill:none;stroke:#000000;stroke-width:0.28222221;stroke-linecap:butt;stroke-linejoin:round;stroke-miterlimit:10;stroke-dasharray:none;stroke-opacity:1"
       d="M 63.778074,122.3835 H 62.543351" />
    <text
       id="text44928"
       style="font-variant:normal;font-weight:normal;font-size:2.46944427px;font-family:'DejaVu Sans';-inkscape-font-specification:DejaVuSans;writing-mode:lr-tb;fill:#000000;fill-opacity:1;fill-rule:nonzero;stroke:none;stroke-width:0.35277778"
       x="57.383625"
       y="123.32078">
      <tspan
         id="tspan44926"
         sodipodi:role="line"
         y="123.32078"
         x="57.383625 58.954193 59.737007"
         style="stroke-width:0.35277778">1.3</tspan>
    </text>
    <path
       inkscape:connector-curvature="0"
       id="path44930"
       style="fill:none;stroke:#000000;stroke-width:0.28222221;stroke-linecap:butt;stroke-linejoin:round;stroke-miterlimit:10;stroke-dasharray:none;stroke-opacity:1"
       d="M 63.778074,113.73092 H 62.543351" />
    <text
       id="text44934"
       style="font-variant:normal;font-weight:normal;font-size:2.46944427px;font-family:'DejaVu Sans';-inkscape-font-specification:DejaVuSans;writing-mode:lr-tb;fill:#000000;fill-opacity:1;fill-rule:nonzero;stroke:none;stroke-width:0.35277778"
       x="57.383625"
       y="114.66812">
      <tspan
         id="tspan44932"
         sodipodi:role="line"
         y="114.66812"
         x="57.383625 58.954193 59.737007"
         style="stroke-width:0.35277778">1.4</tspan>
    </text>
    <path
       inkscape:connector-curvature="0"
       id="path44936"
       style="fill:none;stroke:#000000;stroke-width:0.28222221;stroke-linecap:butt;stroke-linejoin:round;stroke-miterlimit:10;stroke-dasharray:none;stroke-opacity:1"
       d="M 63.778074,105.07834 H 62.543351" />
    <text
       id="text44940"
       style="font-variant:normal;font-weight:normal;font-size:2.46944427px;font-family:'DejaVu Sans';-inkscape-font-specification:DejaVuSans;writing-mode:lr-tb;fill:#000000;fill-opacity:1;fill-rule:nonzero;stroke:none;stroke-width:0.35277778"
       x="57.383625"
       y="106.01545">
      <tspan
         id="tspan44938"
         sodipodi:role="line"
         y="106.01545"
         x="57.383625 58.954193 59.737007"
         style="stroke-width:0.35277778">1.5</tspan>
    </text>
    <g
       id="g44954"
       transform="matrix(0.35277777,0,0,-0.35277777,51.85101,157.45748)">
      <g
         id="g44956">
        <g
           id="g44958"
           clip-path="url(#clipPath44962)">
          <g
             id="g44964">
            <path
               d="m 33.984,126.418 0.36,-1.902 0.711,-6.043 0.715,-7.504 2.136,-29.071 1.071,-12.668 1.07,-9.382 1.07,-7.426 0.356,-2.484 0.355,-1.083 0.36,-1.781 0.355,-0.953 0.711,-3.066 0.359,-0.059 0.356,-1.105 0.355,-0.27 0.356,-1.109 0.359,-0.489 0.356,-0.171 0.71,-1.266 0.36,-0.145 0.355,-0.433 0.356,0.117 1.07,-1.457 0.356,0.477 0.359,0.031 0.355,-0.125 0.356,0.031 0.355,-0.59 0.715,-0.035 0.356,0.098 0.355,-0.348 0.359,0.211 0.711,-0.699 0.356,0.461 0.359,-0.133 0.356,-0.649 0.355,-0.003 0.356,-0.54 0.359,0.965 0.356,-0.101 0.355,-0.531 0.355,0.652 0.36,-0.442 0.355,0.258 0.356,-0.476 0.359,0.609 0.356,-0.215 0.355,-0.793 1.07,0.531 0.356,-0.984 0.355,0.527 0.36,-0.058 0.355,-0.422 0.711,0.445 0.36,-0.105 0.355,-0.731 0.355,-0.062 0.356,0.41 0.359,-0.641 0.356,0.243 0.355,-2.469 0.36,0.793 0.355,-0.481 0.356,0.164 0.355,0.559 0.359,-0.203 0.356,0.82 0.355,0.36 0.356,0.863 0.359,-0.445 0.356,0.367 0.355,-0.907 0.356,0.969 0.359,-0.109 1.781,-1.274 0.356,0.02 0.359,-0.645 0.355,0.172 0.711,-0.093 0.36,-0.954 0.711,-0.226 0.355,0.605 0.36,-0.008 1.066,1.133 0.359,1.028 0.356,-0.746 0.355,0.441 0.356,0.238 0.359,-0.09 0.356,0.68 0.355,-1.101 0.359,0.605 0.711,-1.23 0.356,0.031 0.359,-0.25 0.356,0.371 0.355,-0.379 0.356,0.402 0.359,-0.906 1.066,-0.281 0.36,0.035 0.355,0.195 0.356,0.446 0.355,-0.993 0.36,0.016 0.355,0.793 0.356,0.184 0.714,-0.297 0.356,0.625 0.355,-0.602 0.36,0.192 0.355,-0.262 1.07,0.445 0.711,-0.449 0.356,0.66 0.359,-0.836 0.356,0.047 0.355,0.328 0.356,-0.39 0.359,0.382 0.355,-0.836 0.711,1.043 0.715,-0.886 0.356,0.152 0.359,0.359 0.356,-0.254 0.711,0.157 1.07,0.074 1.07,-0.578 0.356,1.035 0.355,-0.973 0.359,0.41 0.711,-0.3 0.356,0.312 0.359,-0.668 0.356,0.196 0.355,0.437 0.36,-0.059 0.355,-0.308 0.711,0.18 0.359,-0.415 0.711,-0.191 0.356,0.336 0.359,-0.266 0.356,0.028 0.355,0.23 0.356,-0.254 0.359,0.492 0.355,-0.042 0.711,-0.469 0.36,0.101 0.355,0.539 0.356,-0.129 0.359,-0.277 0.355,0.266 0.356,-0.266 0.355,0.512 0.36,-0.414 0.711,-0.035 0.355,-0.364 0.36,0.266 0.355,-0.238 0.711,0.004 0.359,0.472 0.356,-0.222 0.355,-0.84 0.356,0.777 0.715,0.481 0.355,-0.473 0.359,-0.016 0.356,-0.156 0.355,0.16 0.356,-0.418 0.359,0.594 0.356,-0.238 0.355,-0.649 0.715,0.828 0.355,0.039 0.356,-1.132 0.355,0.918 1.071,-0.204 0.715,-0.332 0.355,0.657 0.356,-0.34 0.359,0.137 0.355,0.39 0.356,0.039 0.355,-0.699 0.715,0.508 0.356,-0.356 0.355,0.145 0.359,-0.602 0.356,0.493 0.355,-0.235 1.071,0.235 0.711,0.07 0.359,-0.215 0.355,0.227 0.356,-0.594 0.355,0.715 0.715,-0.098 0.356,0.23 0.359,-0.168 0.356,-0.5 0.355,0.118 0.355,0.578 0.36,-0.156 0.355,0.109 0.356,-0.551 0.715,0.129 0.711,-0.074 0.355,0.43 0.359,-0.508 0.356,-0.258 0.355,0.508 0.356,-0.207 0.359,-0.063 0.711,0.828 1.07,-0.957 0.356,0.496 0.359,-0.464 0.356,0.566 0.355,-0.848 0.356,0.723 0.715,-0.594 0.711,0.445 0.359,-0.523 0.355,0.719 0.356,-0.102 0.355,-0.234 0.715,0.16 0.356,-0.375 0.359,0.461 0.355,-0.539 0.711,0.574 0.715,-0.633 0.711,0.289 0.36,-0.113 0.355,0.649 0.355,-0.262 0.356,0.074 0.359,-0.203 0.356,0.359 0.355,-0.914 0.356,0.481 0.359,0.132 0.356,-0.058 0.355,-0.356 0.359,-0.179 0.356,0.14 0.355,0.52 0.356,-0.285 h 0.359 l 0.711,-0.512 0.356,0.711 0.359,-1.145 0.355,0.965 0.356,0.157 0.355,-0.02 0.36,-0.539 0.355,0.531 0.356,-0.398 0.355,-0.078 0.36,0.136 0.355,0.383 0.355,-0.457 0.356,0.254 0.359,0.52 0.356,-0.172 0.355,-0.395 0.36,0.695 0.355,-1.14 0.711,0.918 0.359,-0.391 1.782,-0.336 0.355,0.414 0.356,0.09 0.359,-0.433 0.355,0.363 0.356,-0.559 0.355,0.871 0.36,-0.519 0.355,-0.278 0.356,0.43 0.715,-0.289 0.355,-0.141 0.715,0.196 0.711,0.254 0.355,-0.785 0.36,0.085 0.355,0.391 0.356,0.121 0.355,-0.18 0.359,0.637 0.356,0.137 0.355,-0.695 0.356,-0.25 0.715,0.492 0.355,-0.352 0.359,-0.105 0.356,0.109 0.355,0.238 0.715,0.067 0.711,-0.043 0.356,-0.285 0.359,0.199 0.356,0.062 0.355,-0.468 0.355,0.507 0.36,-0.242 0.711,0.106 0.355,-0.172 1.071,0.512 0.359,-0.582 0.355,0.171 0.356,0.305 0.355,-0.68 0.36,0.473 0.355,-0.418 0.356,0.285 0.355,-0.011 0.36,-0.305 0.355,-0.156 0.355,0.562 0.356,-0.015 0.359,-0.622 0.356,1.051 0.355,-0.262 0.356,0.184 0.359,-0.016 0.356,-0.566 0.355,0.289 0.359,-0.18 0.356,-0.496 0.355,0.809 0.356,-0.617 0.359,0.289 0.356,-0.305 0.355,0.672 0.356,-0.309 0.359,0.004 0.355,-0.273 0.356,0.344 0.355,-0.133 0.36,0.262 0.355,-0.454 0.356,0.446 0.355,-0.059 0.359,-0.551 0.356,0.305 0.711,-0.129 0.359,0.297 0.356,-0.551 0.355,0.692 0.36,-0.641 0.355,0.383 0.711,0.433 0.359,-0.855 0.356,-0.211 0.711,0.902 0.359,0.016 0.356,-0.438 0.355,-0.07 0.356,0.211 0.359,-0.34 0.355,0.465 0.356,-0.84 0.355,0.633 0.36,0.09 0.355,-0.473 0.715,0.668 0.356,0.031 0.355,-0.171 0.355,-0.34 0.36,0.504 0.711,-0.399 0.355,0.117 0.36,-0.039 0.355,0.11 0.356,0.289 0.355,-0.02 0.359,-0.465 0.356,0.422 0.711,-0.511 0.359,0.429 0.356,-0.371 0.355,0.235 0.359,-0.192 0.356,-0.012 0.355,0.375 0.356,-0.476 0.359,-0.082 0.356,0.094 0.355,0.332 0.356,-0.625 0.359,0.586 0.355,-0.129 0.356,0.07 0.715,-0.199 0.355,0.199 0.711,0.074 0.715,-0.34 0.356,0.285 0.359,0.063"
               style="fill:none;stroke:#1f77b4;stroke-width:1.5;stroke-linecap:square;stroke-linejoin:round;stroke-miterlimit:10;stroke-dasharray:none;stroke-opacity:1"
               id="path44966"
               inkscape:connector-curvature="0" />
          </g>
        </g>
      </g>
    </g>
    <g
       id="g44968"
       transform="matrix(0.35277777,0,0,-0.35277777,51.600185,157.10329)">
      <g
         id="g44970">
        <g
           id="g44972"
           clip-path="url(#clipPath44976)">
          <g
             id="g44978">
            <path
               d="m 33.984,119.297 0.715,-4.402 1.071,-10.723 2.496,-31.297 0.711,-8.023 1.07,-8.829 0.711,-5.054 0.359,-1.559 0.356,-2.734 0.355,-0.465 0.715,-2.703 0.355,-0.922 0.356,-1.781 0.359,-0.098 0.356,-1.367 0.355,0.191 0.715,-1.785 0.356,0.324 0.355,-1.25 0.355,-0.195 0.36,-0.379 0.355,0.516 0.356,-0.25 0.355,-0.899 0.36,0.426 0.355,-0.289 0.356,0.207 0.359,-0.656 0.355,0.351 0.356,-0.879 0.355,-0.16 0.715,0.157 0.356,-0.192 0.355,0.086 0.359,-0.234 0.356,0.261 0.355,-0.535 0.356,-0.09 0.359,-0.484 0.356,0.289 0.355,0.59 0.356,-0.57 2.14,0.386 0.356,-0.32 0.359,0.406 0.356,-0.804 0.355,-0.082 0.356,0.523 0.359,-0.762 0.355,0.559 0.356,-0.078 0.355,-0.555 0.715,0.414 0.356,0.36 0.355,-0.879 0.36,0.125 0.355,-0.118 0.355,-0.375 0.715,0.297 0.356,-0.527 0.355,-1.231 0.715,-0.593 0.356,0.371 0.355,-0.235 0.359,0.364 0.356,0.773 0.355,0.461 0.356,0.18 0.359,0.601 0.356,-0.515 0.711,0.605 0.359,-0.394 0.355,0.05 0.356,-0.378 0.355,-0.129 0.36,-1.075 0.355,0.7 0.356,0.371 0.359,-0.442 0.355,-0.09 0.356,0.286 0.355,0.058 0.36,-0.988 0.355,-0.43 0.356,-0.097 0.355,0.574 0.36,0.176 0.355,0.043 0.356,1.511 0.355,0.168 0.359,-0.14 0.356,0.554 0.355,-0.015 0.715,1.215 0.711,-0.016 0.359,-0.301 0.356,-0.531 0.355,1.035 0.356,-0.625 0.359,0.453 0.356,1.535 0.355,-0.453 0.356,0.332 0.359,0.817 0.356,-1.082 0.71,0.988 0.36,-0.082 0.355,0.39 0.356,0.571 0.355,-0.164 0.36,0.043 0.355,0.367 0.715,-0.641 0.711,0.098 0.355,-0.34 1.426,-2.055 0.359,-0.402 0.356,0.113 0.355,-0.89 0.715,-0.563 0.356,0.071 0.355,-0.325 0.356,-0.504 0.359,0.168 0.355,-0.851 0.356,0.488 0.355,-0.121 0.36,-0.863 0.355,0.336 0.356,-0.059 0.359,-0.434 0.711,0.332 0.356,0.407 0.359,-0.25 0.355,-0.574 0.356,0.082 0.715,-0.211 1.781,-0.106 0.355,-0.391 0.356,0.403 0.359,0.055 0.356,-0.711 0.715,0.886 0.711,-0.879 0.355,0.075 0.359,-0.262 0.356,0.797 0.355,0.039 0.356,-0.344 0.359,-0.101 0.356,-0.293 0.355,0.675 0.356,-0.445 0.714,0.109 0.356,-0.211 0.355,0.45 0.36,-0.051 0.355,0.105 0.356,-0.597 0.359,0.379 0.355,-0.364 0.356,0.442 0.355,-0.735 0.36,0.164 0.355,0.461 0.356,-0.394 0.355,-0.078 0.36,0.781 0.355,-0.988 0.355,0.211 0.356,-0.368 0.359,0.329 0.356,-0.477 0.355,0.75 0.356,-0.777 0.715,0.824 0.355,-0.395 0.359,0.258 0.356,-0.457 0.355,-0.148 0.356,0.761 0.359,0.071 0.356,-0.821 0.355,0.739 0.356,-0.578 0.359,0.519 0.355,-0.379 1.071,0.055 0.355,-0.301 0.356,0.43 0.355,-0.074 0.36,-0.579 0.355,0.727 0.356,-0.238 0.359,0.121 0.355,-0.211 0.356,0.019 0.715,0.606 0.355,-0.453 0.711,0.133 0.359,-0.567 0.711,0.524 0.715,-0.016 0.356,0.105 0.355,-0.144 0.356,0.285 0.359,-0.012 0.355,0.149 0.711,-0.875 0.36,1.172 0.355,-0.414 0.715,0.406 0.356,-0.016 0.355,-0.363 0.715,0.387 1.066,-0.27 1.426,0.27 0.359,0.129 0.356,-0.219 0.355,0.172 0.356,-0.52 0.359,0.281 0.356,-0.605 0.355,0.984 0.36,-0.527 0.355,-0.109 0.355,0.238 0.356,-0.024 0.359,-0.148 0.356,-0.441 0.355,0.398 0.356,0.023 0.359,-0.582 0.356,0.278 0.355,-0.379 0.356,0.25 0.359,-0.246 0.355,0.488 0.356,-0.434 0.355,0.004 0.36,-0.363 0.355,0.594 0.356,-0.289 0.359,0.226 0.355,-0.543 0.356,0.641 0.355,-0.437 0.36,0.339 0.355,-0.343 0.356,-0.184 0.715,0.445 0.355,-0.937 0.355,0.738 0.715,0.203 0.711,-0.48 0.715,0.191 0.356,-0.383 0.355,-0.058 0.359,-0.426 0.356,0.027 0.355,0.895 0.356,0.347 0.359,-0.664 0.356,-0.253 0.711,0.5 0.359,-0.11 0.355,0.387 0.356,-0.539 0.355,0.355 0.715,-0.066 0.356,-0.406 0.355,0.355 0.36,0.156 0.355,-0.398 0.355,0.09 0.356,0.277 0.359,-0.016 0.356,-0.726 0.355,0.351 0.715,0.215 0.356,0.219 0.355,-0.867 0.359,0.652 0.356,-0.351 0.355,0.347 0.356,0.098 0.359,-0.285 0.356,0.285 0.355,0.094 0.356,-0.266 0.359,-0.043 0.355,-0.371 0.356,0.453 0.355,-0.281 0.36,0.312 0.355,-0.414 0.356,0.438 0.715,-0.266 0.355,-0.012 0.355,0.477 0.36,-0.539 0.355,-0.02 0.356,0.192 0.715,-0.313 0.355,0.45 0.356,-0.043 1.07,-0.465 0.355,0.347 0.356,-0.41 0.359,0.133 0.356,0.543 0.355,-0.437 0.359,0.226 0.356,-0.023 0.355,-0.348 1.071,0.461 0.355,-0.551 0.356,0.367 0.359,-0.425 0.356,-0.098 0.71,0.461 0.36,-0.184 0.355,0.211 0.356,-0.379 0.715,0.539 0.355,-0.422 0.356,0.059 0.359,0.594 0.355,-0.512 0.711,0.258 0.36,-0.391 0.355,0.434 0.356,-0.481 0.355,0.262 1.07,-0.168 0.356,0.461 0.359,-0.637 0.356,0.305 0.355,0.129 0.356,-0.254 0.359,0.039 0.356,-0.101 0.355,0.074 0.359,0.476 0.356,-0.515 0.355,0.398 0.356,-0.414 0.359,0.391 0.711,0.238 0.356,-0.516 0.359,0.207 0.711,0.219 0.355,-0.418 0.36,0.324 0.711,-0.808 0.355,0.285 0.715,-0.039 0.355,0.469 0.356,-0.559 0.359,0.078 0.356,0.41 0.355,-0.089 0.36,0.128 0.355,-0.562 0.356,0.434 0.355,-0.493 0.359,0.477 0.356,-0.309 0.355,-0.465 0.356,0.895 0.359,-0.254 0.356,0.227 0.355,0.05 0.356,-0.695 0.359,0.25 0.355,0.035 0.356,0.25 0.355,-0.222 0.36,0.156 0.355,-0.051 0.356,0.359 0.359,-0.382 0.356,0.343 0.355,-0.101 0.355,0.094 0.36,-0.661 0.711,0.579 1.07,-0.122 0.356,-0.789 0.355,0.621 0.359,0.211 0.356,-0.074 0.355,-0.527 0.356,0.59 0.359,-0.797 0.356,0.996 h 0.355 l 0.359,-0.531 0.356,0.375 0.355,-0.125 0.356,-0.504 0.359,0.847 0.356,-0.324 0.355,-0.172 0.356,-0.355 0.359,0.051 0.355,0.289 0.356,0.019 0.355,0.25 0.36,-0.39 0.355,0.125 0.356,-0.055 0.355,0.477 0.36,-0.485 1.07,0.035"
               style="fill:none;stroke:#ff7f0e;stroke-width:1.5;stroke-linecap:square;stroke-linejoin:round;stroke-miterlimit:10;stroke-dasharray:none;stroke-opacity:1"
               id="path44980"
               inkscape:connector-curvature="0" />
          </g>
        </g>
      </g>
    </g>
    <g
       id="g44982"
       transform="matrix(0.35277777,0,0,-0.35277777,51.85101,157.44502)">
      <path
         d="M 33.809,25.805 V 148.441"
         style="fill:none;stroke:#000000;stroke-width:0.80000001;stroke-linecap:square;stroke-linejoin:miter;stroke-miterlimit:10;stroke-dasharray:none;stroke-opacity:1"
         id="path44984"
         inkscape:connector-curvature="0" />
      <path
         d="M 211.992,25.805 V 148.441"
         style="fill:none;stroke:#000000;stroke-width:0.80000001;stroke-linecap:square;stroke-linejoin:miter;stroke-miterlimit:10;stroke-dasharray:none;stroke-opacity:1"
         id="path44986"
         inkscape:connector-curvature="0" />
      <path
         d="M 33.809,25.805 H 211.992"
         style="fill:none;stroke:#000000;stroke-width:0.80000001;stroke-linecap:square;stroke-linejoin:miter;stroke-miterlimit:10;stroke-dasharray:none;stroke-opacity:1"
         id="path44988"
         inkscape:connector-curvature="0" />
      <path
         d="M 33.809,148.441 H 211.992"
         style="fill:none;stroke:#000000;stroke-width:0.80000001;stroke-linecap:square;stroke-linejoin:miter;stroke-miterlimit:10;stroke-dasharray:none;stroke-opacity:1"
         id="path44990"
         inkscape:connector-curvature="0" />
      <path
         d="M 81.859,144.605 H 197.058 V 62.523 H 81.859 Z"
         style="fill:#ffffff;fill-opacity:1;fill-rule:nonzero;stroke:none"
         id="path44992"
         inkscape:connector-curvature="0" />
      <path
         d="m 81.859,62.523 v -3.5"
         style="fill:none;stroke:#000000;stroke-width:0.80000001;stroke-linecap:butt;stroke-linejoin:round;stroke-miterlimit:10;stroke-dasharray:none;stroke-opacity:1"
         id="path44994"
         inkscape:connector-curvature="0" />
      <text
         transform="matrix(1,0,0,-1,79.63388,50.212191)"
         style="font-variant:normal;font-weight:normal;font-size:7px;font-family:'DejaVu Sans';-inkscape-font-specification:DejaVuSans;writing-mode:lr-tb;fill:#000000;fill-opacity:1;fill-rule:nonzero;stroke:none"
         id="text44998">
        <tspan
           x="0"
           y="0"
           id="tspan44996">0</tspan>
      </text>
      <path
         d="m 114.773,62.523 v -3.5"
         style="fill:none;stroke:#000000;stroke-width:0.80000001;stroke-linecap:butt;stroke-linejoin:round;stroke-miterlimit:10;stroke-dasharray:none;stroke-opacity:1"
         id="path45000"
         inkscape:connector-curvature="0" />
      <text
         transform="matrix(1,0,0,-1,112.54816,50.212191)"
         style="font-variant:normal;font-weight:normal;font-size:7px;font-family:'DejaVu Sans';-inkscape-font-specification:DejaVuSans;writing-mode:lr-tb;fill:#000000;fill-opacity:1;fill-rule:nonzero;stroke:none"
         id="text45004">
        <tspan
           x="0"
           y="0"
           id="tspan45002">1</tspan>
      </text>
      <path
         d="m 147.688,62.523 v -3.5"
         style="fill:none;stroke:#000000;stroke-width:0.80000001;stroke-linecap:butt;stroke-linejoin:round;stroke-miterlimit:10;stroke-dasharray:none;stroke-opacity:1"
         id="path45006"
         inkscape:connector-curvature="0" />
      <text
         transform="matrix(1,0,0,-1,145.46245,50.212191)"
         style="font-variant:normal;font-weight:normal;font-size:7px;font-family:'DejaVu Sans';-inkscape-font-specification:DejaVuSans;writing-mode:lr-tb;fill:#000000;fill-opacity:1;fill-rule:nonzero;stroke:none"
         id="text45010">
        <tspan
           x="0"
           y="0"
           id="tspan45008">2</tspan>
      </text>
      <path
         d="m 180.602,62.523 v -3.5"
         style="fill:none;stroke:#000000;stroke-width:0.80000001;stroke-linecap:butt;stroke-linejoin:round;stroke-miterlimit:10;stroke-dasharray:none;stroke-opacity:1"
         id="path45012"
         inkscape:connector-curvature="0" />
      <text
         transform="matrix(1,0,0,-1,178.37673,50.212191)"
         style="font-variant:normal;font-weight:normal;font-size:7px;font-family:'DejaVu Sans';-inkscape-font-specification:DejaVuSans;writing-mode:lr-tb;fill:#000000;fill-opacity:1;fill-rule:nonzero;stroke:none"
         id="text45016">
        <tspan
           x="0"
           y="0"
           id="tspan45014">3</tspan>
      </text>
      <path
         d="m 81.859,62.523 h -3.5"
         style="fill:none;stroke:#000000;stroke-width:0.80000001;stroke-linecap:butt;stroke-linejoin:round;stroke-miterlimit:10;stroke-dasharray:none;stroke-opacity:1"
         id="path45018"
         inkscape:connector-curvature="0" />
      <text
         transform="matrix(1,0,0,-1,59.282315,59.868441)"
         style="font-variant:normal;font-weight:normal;font-size:7px;font-family:'DejaVu Sans';-inkscape-font-specification:DejaVuSans;writing-mode:lr-tb;fill:#000000;fill-opacity:1;fill-rule:nonzero;stroke:none"
         id="text45022">
        <tspan
           x="0 4.4520001 6.671 11.123"
           y="0"
           sodipodi:role="line"
           id="tspan45020">0.98</tspan>
      </text>
      <path
         d="m 81.859,79.625 h -3.5"
         style="fill:none;stroke:#000000;stroke-width:0.80000001;stroke-linecap:butt;stroke-linejoin:round;stroke-miterlimit:10;stroke-dasharray:none;stroke-opacity:1"
         id="path45024"
         inkscape:connector-curvature="0" />
      <text
         transform="matrix(1,0,0,-1,59.282315,76.968441)"
         style="font-variant:normal;font-weight:normal;font-size:7px;font-family:'DejaVu Sans';-inkscape-font-specification:DejaVuSans;writing-mode:lr-tb;fill:#000000;fill-opacity:1;fill-rule:nonzero;stroke:none"
         id="text45028">
        <tspan
           x="0 4.4520001 6.671 11.123"
           y="0"
           sodipodi:role="line"
           id="tspan45026">0.99</tspan>
      </text>
      <path
         d="m 81.859,96.726 h -3.5"
         style="fill:none;stroke:#000000;stroke-width:0.80000001;stroke-linecap:butt;stroke-linejoin:round;stroke-miterlimit:10;stroke-dasharray:none;stroke-opacity:1"
         id="path45030"
         inkscape:connector-curvature="0" />
      <text
         transform="matrix(1,0,0,-1,59.282315,94.068441)"
         style="font-variant:normal;font-weight:normal;font-size:7px;font-family:'DejaVu Sans';-inkscape-font-specification:DejaVuSans;writing-mode:lr-tb;fill:#000000;fill-opacity:1;fill-rule:nonzero;stroke:none"
         id="text45034">
        <tspan
           x="0 4.4520001 6.671 11.123"
           y="0"
           sodipodi:role="line"
           id="tspan45032">1.00</tspan>
      </text>
      <path
         d="m 81.859,113.824 h -3.5"
         style="fill:none;stroke:#000000;stroke-width:0.80000001;stroke-linecap:butt;stroke-linejoin:round;stroke-miterlimit:10;stroke-dasharray:none;stroke-opacity:1"
         id="path45036"
         inkscape:connector-curvature="0" />
      <text
         transform="matrix(1,0,0,-1,59.282315,111.16844)"
         style="font-variant:normal;font-weight:normal;font-size:7px;font-family:'DejaVu Sans';-inkscape-font-specification:DejaVuSans;writing-mode:lr-tb;fill:#000000;fill-opacity:1;fill-rule:nonzero;stroke:none"
         id="text45040">
        <tspan
           x="0 4.4520001 6.671 11.123"
           y="0"
           sodipodi:role="line"
           id="tspan45038">1.01</tspan>
      </text>
      <path
         d="m 81.859,130.926 h -3.5"
         style="fill:none;stroke:#000000;stroke-width:0.80000001;stroke-linecap:butt;stroke-linejoin:round;stroke-miterlimit:10;stroke-dasharray:none;stroke-opacity:1"
         id="path45042"
         inkscape:connector-curvature="0" />
      <text
         transform="matrix(1,0,0,-1,59.282315,128.26844)"
         style="font-variant:normal;font-weight:normal;font-size:7px;font-family:'DejaVu Sans';-inkscape-font-specification:DejaVuSans;writing-mode:lr-tb;fill:#000000;fill-opacity:1;fill-rule:nonzero;stroke:none"
         id="text45046">
        <tspan
           x="0 4.4520001 6.671 11.123"
           y="0"
           sodipodi:role="line"
           id="tspan45044">1.02</tspan>
      </text>
    </g>
    <g
       id="g45048"
       transform="matrix(0.35277777,0,0,-0.35277777,51.85101,157.44502)">
      <g
         id="g45050"
         clip-path="url(#clipPath45054)">
        <g
           id="g45056"
           transform="translate(0,-0.0353088)">
          <g
             id="g45058">
            <g
               id="g45060"
               clip-path="url(#clipPath45064)">
              <g
                 id="g45066">
                <path
                   d="m 81.977,61.551 0.238,-1.578 0.234,1.839 0.235,-0.664 0.234,0.981 0.234,-0.531 0.239,1.535 0.234,2.726 0.234,-1.722 0.469,3.511 0.238,0.891 0.235,2.746 0.234,-2.867 0.235,2.402 0.234,0.024 0.238,5.144 0.235,-2.644 0.234,0.051 0.234,0.929 0.239,3.492 0.234,-1.777 0.469,5.957 0.234,-2.058 0.238,2.656 0.469,-0.766 0.234,-1.769 0.473,4.929 0.235,-3.242 0.234,3.258 0.234,-3.992 0.235,2.758 0.238,-1.575 0.234,6.266 0.469,-5.102 0.234,5.09 0.239,2.196 0.234,-1.801 0.234,-4.578 0.235,3.179 0.234,-6.082 0.238,2.852 0.235,0.988 0.234,0.281 0.235,-1.925 0.238,2.875 0.234,-2.946 0.235,4.164 0.234,-1.347 0.473,-6.024 0.468,10.203 0.235,-0.207 0.234,-6.078 0.238,0.551 0.235,4.43 0.234,-3.664 0.235,2.785 0.234,-0.781 0.238,1.019 0.235,-1.324 0.234,-3.973 0.234,4.75 0.235,2.274 0.238,-7.059 0.234,3.395 0.235,6.05 0.234,-7.273 0.238,1.617 0.235,4.402 0.234,1.106 0.235,-7.594 0.234,1.528 0.238,4.121 0.469,-3.7 0.234,5.133 0.235,-5.156 0.238,8.344 0.234,-7.582 0.469,2.793 0.235,-5.352 0.238,3.836 0.234,-0.277 0.235,0.679 0.234,-4.582 0.234,7.055 0.239,-5.926 0.234,8.602 0.234,-4.969 0.235,-1.914 0.234,1.961 0.238,-0.047 0.235,0.758 0.234,-6.176 0.234,6.461 0.473,3.742 0.235,-1.781 0.234,2.32 0.234,0.653 0.239,-0.239 0.234,-2.269 0.234,0.211 0.235,-0.203 0.234,1.23 0.238,-2.656 0.235,8.469 0.234,-1.805 0.234,-7.86 0.235,8.774 0.238,-3.094 0.234,2.836 0.235,4.36 0.234,-4.579 0.235,7.348 0.238,-6.121 0.234,0.18 0.235,11.582 0.234,-4.442 0.234,4.746 0.239,7.879 0.468,-0.984 0.235,11.801 0.238,-7.028 0.469,8.328 0.234,-0.769 0.473,2.066 0.234,5.793 0.235,0.196 0.468,-6.649 0.239,-0.945 0.234,1.656 0.234,-4.332 0.235,1.852 0.234,-4.977 0.238,-2.348 0.235,-5.351 0.234,-2.156 0.235,-4.446 0.234,2.196 0.473,-10.836 0.234,3.847 0.234,0.121 0.235,-4.449 0.238,-0.722 0.234,-1.477 0.235,-0.117 0.234,0.344 0.473,-8.258 0.234,5.789 0.234,-1.457 0.235,-5.375 0.238,2.695 0.235,0.559 0.234,2.39 0.234,-1.781 0.235,-3.781 0.238,0.043 0.234,0.222 0.469,1.981 0.234,-6.824 0.239,5.925 0.234,-3.75 0.234,2.36 0.235,-1.981 0.234,0.641 0.238,4.887 0.235,-6.16 0.234,0.617 0.235,2.828 0.234,-1.031 0.238,-3.485 0.235,-0.086 0.234,1.047 0.234,6.086 0.239,0.906 0.234,-4.625 0.234,1.114 0.235,-2.188 0.234,3.024 0.238,-1.289 0.235,-2.817 0.234,0.492 0.235,0.043 0.234,4.778 0.238,-1.047 0.469,-6.133 0.234,4.465 0.235,-4.262 0.238,4.801 0.234,-8.477 0.469,6.91 0.235,-2.312 0.238,1.957 0.234,3.527 0.235,-5.117 0.234,1.504 0.238,-2.609 0.235,-0.961 0.234,-1.75 0.234,10.836 0.235,-10.598 0.472,2.371 0.235,0.508 0.234,1.875 0.473,-4.18 0.234,8.055 0.469,-7.547 0.234,9.48 0.239,-7.261 0.234,1.207 0.234,-2.844 0.235,7.867 0.234,-5.492 0.238,-0.32 0.235,-1.532 0.234,3.559 0.234,0.961 0.235,-3.152 0.473,1.164 0.234,-0.086 0.234,-4.078 0.239,-0.164 0.234,7.136 0.234,0.457 0.235,-5.23 0.234,2.91 0.238,-0.578 0.235,0.215 0.234,-1.891 0.234,3.723 0.235,-1.141 0.238,-0.035 0.234,0.191 0.235,-1.054 0.469,2.929 0.238,-0.543 0.234,1.297 0.235,-8.07 0.234,8.598 0.234,-2.785 0.239,-0.317 0.468,5.961 0.469,-5.668 0.238,2.156 0.235,-1.379 0.234,2.989 0.235,-0.989 0.472,0.102 0.235,1.578 0.234,-2.59 0.234,4.344 0.239,0.27 0.468,-4.45 0.235,2.371 0.234,-6.933 0.238,3.863 0.235,-1.543 0.234,1.949 0.235,3.407 0.234,-3.543 0.238,2.144 0.235,-6.871 0.234,8.492 0.234,-4.761 0.235,-1.434 0.238,3.391 0.234,-4.141 0.235,0.246 0.234,1.887 0.473,-3.828 0.234,1.613 0.234,-3.106 0.235,3.571 0.238,0.609 0.235,-1.598 0.234,-0.039 0.234,2.176 0.235,-4.687 0.238,4.758 0.234,-0.497 0.235,-1.961 0.234,0.661 0.234,1.898 0.239,-10.781 0.234,6.769 0.234,0.356 0.235,1.926 0.234,-4.383 0.238,4.871 0.235,-2.328 0.234,-0.543 0.235,-2.18 0.234,1.988 0.238,-1.672 0.235,-0.765 0.234,2.574 0.234,4.313 0.239,-4.559 0.234,-0.082 0.234,3.73 0.235,-3.312 0.234,7.066 0.473,-8.683 0.469,5.613 0.234,-3.461 0.238,-0.058 0.235,2.964 0.234,0.118 0.234,-5.336 0.235,3.734 0.238,0.168 0.469,-7.41 0.234,5.062 0.235,-4.246 0.238,8.758 0.234,-2.078 0.235,-8.574 0.234,7.082 0.234,-1.825 0.239,3.563 0.234,0.66 0.234,-0.648 0.235,1.164 0.472,-4.594 0.235,2.648 0.234,-5.003 0.235,6.906 0.238,-7.832 0.234,5.648 0.235,-0.953 0.234,0.09 0.234,-0.543 0.473,1.539 0.234,2.785 0.235,-4.531 0.234,-1.301 0.238,0.766 0.235,4.261 0.234,-1.66 0.234,0.426 0.235,-1.125 0.238,-0.078 0.235,-4.906 0.234,-2.199 0.234,7.078 0.473,-1.813 0.234,1.985 0.235,-0.606 0.234,2.266 0.238,-0.895 0.235,-4 0.468,1.016 0.235,2.133 0.238,-3.942 0.234,4.469 0.235,-4.285 0.234,-1.098 0.235,4.457 0.238,-1.551 0.234,0.379 0.235,1.211 0.234,-3.054 0.234,3.468 0.239,-0.035 0.234,-5.019 0.234,0.449 0.235,8.058 0.234,-4.703 0.238,-0.996 0.235,5.34 0.234,-5.91 0.235,5.836 0.234,-5.25 0.473,3.687 0.234,0.953 0.234,-4.609 0.239,3.254 0.234,-0.102 0.234,-5.062 0.235,2.648 0.234,-2.968 0.238,0.347 0.235,3.156 0.234,-1.445 0.235,4.469 0.234,-0.141 0.238,-2.773 0.469,2.062 0.234,2.832 0.235,-3.718 0.238,-1.399 0.234,1.387 0.235,2.223 0.234,-1.227 0.234,-1.957 0.239,0.445 0.234,0.074 0.234,-5.527 0.473,5.789 0.235,-2.043 0.234,3.375 0.234,-3.14 0.235,-1.489 0.238,6.586 0.234,-5.336 0.235,5.258 0.234,-6.461 0.234,1.574 0.239,-4.91 0.234,9.063 0.234,-0.676 0.235,-6.465 0.234,3.262 0.238,-1.82 0.235,4.5 0.234,0.851 0.235,-6.219 0.234,4.051 0.238,-2.953 0.235,7.473 0.234,-5.883 0.234,0.484 0.235,2.852 0.238,-0.199 0.234,-4.497 0.235,2.149 0.234,0.469 0.238,2.957 0.235,-7.957 0.469,6.652 0.234,-0.871 0.238,0.738 0.235,-1.957 0.234,-7.347 0.469,8.976 0.472,-5.305 0.235,5.829 0.234,-8.383 0.235,9.367 0.472,-3.938 0.235,2.641 0.234,-3.398 0.234,-0.219 0.239,6.363 0.468,-6.277 0.235,1.804 0.234,-3.636 0.238,2.867 0.235,-0.352 0.234,2.164 0.235,-1.773 0.472,-1.008 0.235,2.871 0.234,-2.109 0.234,1.113 0.239,-2.328 0.234,0.199"
                   style="fill:none;stroke:#1f77b4;stroke-width:1.5;stroke-linecap:square;stroke-linejoin:round;stroke-miterlimit:10;stroke-dasharray:none;stroke-opacity:1"
                   id="path45068"
                   inkscape:connector-curvature="0" />
              </g>
            </g>
          </g>
        </g>
      </g>
    </g>
    <path
       inkscape:connector-curvature="0"
       id="path45072"
       style="fill:none;stroke:#000000;stroke-width:0.28222221;stroke-linecap:square;stroke-linejoin:miter;stroke-miterlimit:10;stroke-dasharray:none;stroke-opacity:1"
       d="M 80.729045,135.3883 V 106.43159" />
    <path
       inkscape:connector-curvature="0"
       id="path45074"
       style="fill:none;stroke:#000000;stroke-width:0.28222221;stroke-linecap:square;stroke-linejoin:miter;stroke-miterlimit:10;stroke-dasharray:none;stroke-opacity:1"
       d="M 121.36904,135.3883 V 106.43159" />
    <path
       inkscape:connector-curvature="0"
       id="path45076"
       style="fill:none;stroke:#000000;stroke-width:0.28222221;stroke-linecap:square;stroke-linejoin:miter;stroke-miterlimit:10;stroke-dasharray:none;stroke-opacity:1"
       d="M 80.729045,135.3883 H 121.36904" />
    <path
       inkscape:connector-curvature="0"
       id="path45078"
       style="fill:none;stroke:#000000;stroke-width:0.28222221;stroke-linecap:square;stroke-linejoin:miter;stroke-miterlimit:10;stroke-dasharray:none;stroke-opacity:1"
       d="M 80.729045,106.43159 H 121.36904" />
  </g>
</svg>
