<?xml version="1.0" encoding="UTF-8" standalone="no"?>
<!-- Created with Inkscape (http://www.inkscape.org/) -->

<svg
   xmlns:dc="http://purl.org/dc/elements/1.1/"
   xmlns:cc="http://creativecommons.org/ns#"
   xmlns:rdf="http://www.w3.org/1999/02/22-rdf-syntax-ns#"
   xmlns:svg="http://www.w3.org/2000/svg"
   xmlns="http://www.w3.org/2000/svg"
   xmlns:sodipodi="http://sodipodi.sourceforge.net/DTD/sodipodi-0.dtd"
   xmlns:inkscape="http://www.inkscape.org/namespaces/inkscape"
   width="274.44537mm"
   height="124.68665mm"
   viewBox="0 0 274.44538 124.68665"
   version="1.1"
   id="svg6930"
   inkscape:export-filename="C:\Users\Martin\Documents\Konferenzen\DPG_2019\Talk\FIGS\MMSC_Spektrum\MMSC_1.png"
   inkscape:export-xdpi="96"
   inkscape:export-ydpi="96"
   inkscape:version="0.92.3 (2405546, 2018-03-11)"
   sodipodi:docname="MMSC.svg">
  <defs
     id="defs6924">
    <clipPath
       id="clipPath6952"
       clipPathUnits="userSpaceOnUse">
      <path
         inkscape:connector-curvature="0"
         id="path6950"
         d="M 36,298.97561 H 259.2 V 388.8 H 36 Z" />
    </clipPath>
    <clipPath
       id="clipPath6962"
       clipPathUnits="userSpaceOnUse">
      <path
         inkscape:connector-curvature="0"
         id="path6960"
         d="M 36,298.97561 H 259.2 V 388.8 H 36 Z" />
    </clipPath>
    <clipPath
       id="clipPath6972"
       clipPathUnits="userSpaceOnUse">
      <path
         inkscape:connector-curvature="0"
         id="path6970"
         d="M 36,298.97561 H 259.2 V 388.8 H 36 Z" />
    </clipPath>
    <clipPath
       id="clipPath7002"
       clipPathUnits="userSpaceOnUse">
      <path
         inkscape:connector-curvature="0"
         id="path7000"
         d="M -184,-236 H 1288 V 929 H -184 Z" />
    </clipPath>
    <clipPath
       id="clipPath7022"
       clipPathUnits="userSpaceOnUse">
      <path
         inkscape:connector-curvature="0"
         id="path7020"
         d="M -184,-236 H 1288 V 929 H -184 Z" />
    </clipPath>
    <clipPath
       id="clipPath7122"
       clipPathUnits="userSpaceOnUse">
      <path
         inkscape:connector-curvature="0"
         id="path7120"
         d="M 36,86.663415 H 259.2 V 274.47805 H 36 Z" />
    </clipPath>
    <clipPath
       id="clipPath25128"
       clipPathUnits="userSpaceOnUse">
      <path
         inkscape:connector-curvature="0"
         id="path25126"
         d="M -184,-236 H 1288 V 929 H -184 Z" />
    </clipPath>
    <clipPath
       id="clipPath25150"
       clipPathUnits="userSpaceOnUse">
      <path
         inkscape:connector-curvature="0"
         id="path25148"
         d="M -184,-236 H 1288 V 929 H -184 Z" />
    </clipPath>
    <clipPath
       id="clipPath25262"
       clipPathUnits="userSpaceOnUse">
      <path
         inkscape:connector-curvature="0"
         id="path25260"
         d="m 36,54 h 223.2 v 8.165854 H 36 Z" />
    </clipPath>
    <clipPath
       id="clipPath25290"
       clipPathUnits="userSpaceOnUse">
      <path
         inkscape:connector-curvature="0"
         id="path25288"
         d="M -184,-236 H 1288 V 929 H -184 Z" />
    </clipPath>
    <clipPath
       id="clipPath25310"
       clipPathUnits="userSpaceOnUse">
      <path
         inkscape:connector-curvature="0"
         id="path25308"
         d="M -184,-236 H 1288 V 929 H -184 Z" />
    </clipPath>
    <clipPath
       id="clipPath25330"
       clipPathUnits="userSpaceOnUse">
      <path
         inkscape:connector-curvature="0"
         id="path25328"
         d="M -184,-236 H 1288 V 929 H -184 Z" />
    </clipPath>
    <clipPath
       id="clipPath25350"
       clipPathUnits="userSpaceOnUse">
      <path
         inkscape:connector-curvature="0"
         id="path25348"
         d="M -184,-236 H 1288 V 929 H -184 Z" />
    </clipPath>
  </defs>
  <sodipodi:namedview
     id="base"
     pagecolor="#ffffff"
     bordercolor="#666666"
     borderopacity="1.0"
     inkscape:pageopacity="0.0"
     inkscape:pageshadow="2"
     inkscape:zoom="0.98994949"
     inkscape:cx="466.47069"
     inkscape:cy="345.49554"
     inkscape:document-units="mm"
     inkscape:current-layer="g6968"
     showgrid="false"
     fit-margin-top="0"
     fit-margin-left="0"
     fit-margin-right="0"
     fit-margin-bottom="0"
     inkscape:window-width="1920"
     inkscape:window-height="1017"
     inkscape:window-x="-8"
     inkscape:window-y="-8"
     inkscape:window-maximized="1">
    <inkscape:grid
       type="xygrid"
       id="grid35301"
       originx="7.2318083e-007"
       originy="84.251336" />
  </sodipodi:namedview>
  <metadata
     id="metadata6927">
    <rdf:RDF>
      <cc:Work
         rdf:about="">
        <dc:format>image/svg+xml</dc:format>
        <dc:type
           rdf:resource="http://purl.org/dc/dcmitype/StillImage" />
        <dc:title></dc:title>
      </cc:Work>
    </rdf:RDF>
  </metadata>
  <g
     inkscape:label="Ebene 1"
     inkscape:groupmode="layer"
     id="layer1"
     transform="translate(-40.261424,-60.189436)">
    <g
       transform="matrix(0.35277777,0,0,-0.35277777,37.646425,205.37857)"
       inkscape:label="fig2"
       id="g6940">
      <path
         inkscape:connector-curvature="0"
         id="path6944"
         style="fill:#ffffff;fill-opacity:1;fill-rule:nonzero;stroke:none;stroke-width:3.08360791"
         d="M 95.564939,64.394379 H 783.82623 V 341.37758 H 95.564939 Z" />
      <g
         id="g6946"
         transform="matrix(3.083608,0,0,3.083608,-15.444947,-857.52918)">
        <g
           clip-path="url(#clipPath6952)"
           id="g6948">
          <path
             inkscape:connector-curvature="0"
             id="path6954"
             style="fill:none;stroke:#0000ff;stroke-width:1;stroke-linecap:square;stroke-linejoin:round;stroke-miterlimit:10;stroke-dasharray:none;stroke-opacity:1"
             d="m 15.041365,315.16061 0.374158,1.53203 0.374157,0.34045 0.374158,-0.34045 0.374157,-4.0854 0.374158,7.83035 0.374157,-4.0854 0.374157,2.38315 0.374158,9.53261 0.374157,-4.08541 0.374158,11.40509 0.374157,-4.42586 0.748315,-2.7236 0.374157,10.38373 0.374158,2.89383 0.374157,-2.55337 0.374157,5.10675 0.374158,-0.6809 0.374157,2.55338 0.374158,0.6809 0.374157,0.34045 0.374158,5.27697 0.374157,-0.34045 0.374157,1.53203 0.374158,-6.1281 0.374157,4.59607 0.374158,8.00059 0.374157,-0.68091 0.374157,-6.63878 0.374158,0.17023 0.374157,4.7663 0.374158,-4.0854 0.374157,10.55396 0.374158,-8.17081 0.374157,11.23486 0.374157,1.87248 0.374158,-4.42586 0.374157,4.42586 0.374158,-1.19158 0.374157,-3.91518 0.374157,1.70225 0.374158,4.93653 0.374157,-4.93653 0.374158,2.72361 0.374157,-0.34045 0.374158,0.6809 0.374157,-3.57473 0.374157,1.3618 0.374158,2.55338 0.374157,-4.25563 0.374158,5.95788 0.374157,-5.78766 0.374157,-3.06405 0.374158,-5.10675 0.374157,5.78765 0.748315,-4.93653 0.374158,10.21351 0.374157,-8.68148 0.374157,0.17022 0.374158,0.85113 0.374157,2.55338 h 0.374158 l 0.374157,-7.66013 0.374157,8.00058 0.374158,-5.10676 0.374157,-0.85112 0.374158,6.29833 0.374157,-11.23486 0.374157,5.61743 0.374158,-4.93653 0.374157,4.93653 0.374158,-2.7236 0.374157,3.23427 0.374158,-10.2135 0.374157,-0.51068 0.374157,3.74495 0.374158,1.70225 0.374157,-2.55337 0.374158,-0.34045 0.374157,-8.34103 0.748315,-2.7236 0.374157,3.23427 0.374158,-7.83035 0.374157,-0.6809 0.374158,6.1281 0.374157,-7.66013 0.374157,-0.6809 0.374158,1.70225 0.374157,0.85113 0.374158,-4.59608 0.748314,-4.0854 0.374158,1.70225 0.374157,2.38315 0.374158,-6.29833 0.374157,4.25563 0.374158,-3.74495 0.374157,2.0427 0.374157,-1.02135 0.374158,-0.51068 0.374157,1.87248 0.374158,-0.85113 0.374157,-4.59608 0.374157,2.89383 0.374158,-1.87248 0.374157,-0.34045 0.374158,2.0427 0.374157,-2.0427 0.374158,5.10676 0.374157,-3.06406 0.374157,8.51126 0.374158,-1.53203 0.374157,0.85113 0.374158,2.55338 0.374157,-2.21293 0.374157,4.25563 0.374158,0.17022 0.374157,3.91518 0.374158,-7.4899 0.374157,9.70283 0.374157,-0.85113 0.374158,5.10676 0.374157,-3.74496 0.374158,8.85171 0.374157,-0.6809 0.374158,0.85112 0.374157,3.23428 0.374157,-5.10675 0.374158,1.70225 0.374157,-3.4045 0.374158,-0.17023 0.374157,9.70283 0.374157,-3.91517 0.374158,0.34045 0.374157,-3.57473 0.374158,4.42585 0.374157,-4.25563 0.374158,6.97923 0.374157,-1.19157 0.374157,-2.21293 0.374158,5.27698 h 0.374157 l 0.374158,1.02135 0.374157,3.4045 0.748315,-7.83035 0.374157,3.4045 0.374158,-6.63878 1.122472,6.63878 0.374157,-0.6809 0.374158,-11.06463 0.374157,9.02193 0.374158,-0.17023 0.374157,-2.7236 0.374157,1.3618 0.374158,2.7236 0.374157,-13.61801 0.374158,18.38432 0.374157,-9.87306 0.748315,-1.53203 0.374157,-6.63878 0.374158,9.53261 0.374157,1.3618 0.374158,-1.87247 0.374157,-6.29833 0.374157,-0.51068 0.374158,0.51068 0.374157,-3.74496 0.374158,1.87248 0.374157,-2.38315 0.374157,7.14945 0.374158,-5.78765 0.374157,0.6809 0.748315,-3.91518 0.374158,-5.78765 0.374157,4.59608 0.374157,-2.04271 0.374158,1.87248 0.374157,-4.0854 0.374158,1.19157 0.748314,1.02135 0.374158,-3.23427 0.374157,-4.76631 0.374158,5.27698 0.374157,7.66013 0.374158,-9.36238 h 0.374157 l 0.374157,-0.6809 0.374158,1.87248 0.374157,0.17022 0.748315,-4.25563 0.374157,-1.53202 0.374158,3.23428 0.374157,-2.21293 0.748315,5.61743 0.374158,-10.72418 0.374157,6.1281 0.374157,2.0427 0.374158,-1.19157 0.374157,0.85112 0.374158,1.3618 0.374157,-5.4472 0.374157,5.61743 0.748315,-3.23428 0.374158,0.34045 0.374157,5.4472 0.374158,-0.6809 0.374157,-4.0854 0.374157,4.7663 0.374158,6.29833 0.374157,-5.78765 0.374158,-2.89383 0.374157,1.53203 0.374157,-5.10676 0.374158,11.74554 0.374157,-3.4045 0.374158,-0.17023 0.374161,0.51068 0.37415,-0.6809 0.37416,4.25562 0.37416,-2.0427 0.37416,2.7236 0.37415,-4.59607 0.37416,5.27697 0.37416,-8.1708 0.37416,6.97923 0.37415,-2.55338 0.37416,9.53261 0.37416,-0.17023 0.37416,-4.7663 0.37415,-2.7236 0.74832,6.29833 0.37415,-5.10676 0.37416,0.85113 0.37416,-1.02135 0.37416,4.42585 h 0.37415 l 0.37416,-2.38315 0.37416,2.7236 0.37416,4.93653 0.37415,-6.97923 0.37416,-3.74495 0.37416,5.95788 0.37416,-2.7236 0.37415,-1.53203 0.37416,4.59608 h 0.37416 l 0.37416,-3.06405 0.37415,-1.36181 0.37416,-2.7236 0.37416,7.83036 0.37416,-3.06405 0.37415,-4.42586 0.37416,5.61743 0.74832,-8.68148 0.37415,4.42585 0.37416,2.55338 0.37416,0.51068 0.74831,-7.31968 0.37416,4.25562 0.37416,0.34045 0.37416,3.74496 0.37415,-2.89383 0.74832,-2.89383 0.37415,1.02135 0.37416,-2.38315 0.37416,-0.17022 h 0.37416 l 0.37415,0.34045 0.37416,1.19157 0.37416,-0.51067 0.37416,2.0427 0.37415,0.85112 h 0.37416 l 0.37416,0.51068 0.37416,-6.80901 0.37415,-3.23427 0.37416,4.93653 0.37416,-0.6809 0.37416,0.34045 0.37415,0.6809 0.37416,3.57472 0.37416,-0.17022 0.37416,-6.63878 0.37415,5.78765 0.37416,-5.10675 0.37416,3.74495 0.37415,9.53261 0.37416,-12.08599 0.37416,0.68091 0.37416,-2.89383 0.37415,6.29833 0.37416,-5.78766 0.37416,3.74496 0.37416,0.34045 0.37415,4.42585 0.37416,-4.0854 0.37416,-6.80901 0.37416,6.46856 h 0.74831 l 0.37416,-4.42586 0.37416,6.29833 0.37415,-4.59608 0.37416,-0.6809 0.37416,3.06406 0.37416,6.1281 0.37415,-4.93653 0.74832,4.08541 0.37415,-2.55338 0.74832,3.06405 0.37416,-4.0854 0.37415,-1.19158 h 0.37416 l 0.37416,-1.70225 0.37416,2.7236 0.37415,0.51068 0.37416,-0.85113 0.37416,6.80901 0.37416,-6.29833 0.37415,-3.74496 0.37416,4.08541 0.37416,-3.91518 0.37416,0.6809 0.37415,3.06405 0.37416,-0.17022 0.37416,-5.10676 0.37416,9.87306 0.74831,-3.57473 0.37416,7.66013 0.37416,-11.23485 0.37415,2.7236 0.37416,-2.7236 0.37416,10.04328 0.37416,-10.21351 0.37415,-1.87248 0.37416,7.14946 0.37416,-6.63878 0.37415,8.51126 0.37416,-4.59608 0.37416,4.7663 0.37416,-5.95788 h 0.37415 l 0.37416,-1.19157 0.37416,4.93652 0.37416,-0.17022 0.37415,-2.21293 0.37416,-6.29833 0.37416,2.38315 0.37416,-0.51067 0.37415,1.53203 0.37416,3.23427 0.37416,-6.63878 0.37416,6.29833 0.37415,-1.19157 0.37416,-5.78766 0.37416,1.53203 0.37416,4.0854 0.37415,-5.10675 0.37416,2.38315 0.74832,-5.27698 0.37415,7.83036 0.37416,-7.31968 0.37416,-2.0427 0.37415,8.34103 0.37416,-4.25563 0.37416,0.51067 0.37416,7.48991 0.37415,-8.34103 0.37416,2.7236 0.37416,-1.87248 0.37416,4.08541 0.37415,-0.51068 0.37416,1.02135 0.37416,-3.57473 0.37416,6.29833 0.37415,-7.66013 0.37416,3.57473 0.37416,1.19158 0.37416,-4.42586 0.37415,-1.02135 0.37416,2.89383 0.37416,-4.93653 0.74831,9.02193 0.37416,-1.3618 0.37416,-3.91518 0.37416,0.85113 0.37415,-1.53203 0.37416,12.42644 0.37416,-6.29833 0.37416,7.83035 0.37415,-6.46855 0.37416,-4.0854 0.37416,3.23427 0.37415,6.12811 0.74832,-7.48991 0.37416,4.25563 0.37415,2.55338 0.37416,-2.38315 0.37416,-4.59608 0.37416,12.93711 0.37415,-9.70284 0.37416,1.70226 0.74832,7.83035 0.37415,-6.97923 0.37416,7.83036 0.37416,-5.10676 0.37416,-0.34045 0.37415,-4.93653 0.74832,10.89441 0.37416,-5.61743 0.74831,6.63878 0.37416,-2.55337 0.37416,-4.42586 0.37415,0.51068 0.37416,2.55337 0.37416,4.59608 0.37415,-5.10675 0.37416,3.4045 0.37416,4.93653 0.74831,-2.7236 0.37416,-5.78766 0.37416,3.91518 0.37416,-5.61743 0.37415,0.6809 0.37416,4.93653 0.37416,-2.89383 0.37416,-5.10675 0.37415,5.78766 0.37416,-0.17023 0.37416,-1.02135 0.37416,-4.42585 0.37415,6.63878 0.37416,-11.06464 0.74832,6.63878 0.37415,-1.02135 0.37416,-7.14945 0.37416,5.95788 0.37416,-0.17023 0.37415,-4.42585 0.37416,1.53202 0.37416,-3.23427 h 0.37416 l 0.37415,2.0427 0.37416,-8.85171 0.37416,4.25563 0.37415,0.6809 0.37416,-7.83035 0.37416,3.23427 0.37416,1.70225 0.37415,-1.87247 0.37416,-3.57473 0.37416,-0.34045 0.37416,-1.3618 0.37415,-7.83036 0.37416,7.31968 0.37416,-3.57472 0.37416,-7.66013 0.37415,10.04328 0.37416,1.3618 0.37416,-5.61743 0.37416,1.53203 0.37415,-1.87248 0.37416,1.19158 0.37416,-1.70226 0.37416,1.53203 0.74831,-1.19158 0.37416,-1.02135 0.37416,7.31968 0.37415,0.51068 0.37416,-0.34045 0.37416,-3.23428 0.37416,6.80901 0.37415,-1.3618 0.37416,0.6809 0.37416,8.8517 0.37415,-3.06405 0.37416,-0.17023 0.37416,3.40451 0.37416,-0.51068 0.37415,5.27698 0.37416,-1.19158 0.37416,3.40451 0.37416,-3.23428 0.37415,6.29833 0.37416,-1.3618 0.37416,8.1708 0.37416,-0.51067 0.37415,-1.3618 0.37416,1.02135 0.37416,0.34045 0.37416,1.02135 0.37415,7.83035 0.37416,-5.61742 0.37416,3.23427 0.37416,-5.78765 0.37415,5.10675 0.37416,2.55338 0.37416,-6.80901 0.37416,9.02194 h 0.37415 l 0.37416,-5.10676 0.37416,5.95788 0.37415,-5.78765 0.37416,1.3618 0.37416,-3.06405 0.37416,3.06405 0.37416,11.23486 0.37415,-8.17081 0.37416,0.85113 0.37416,-1.02135 0.37415,-4.93653 0.37416,5.4472 0.37416,-1.70225 0.37416,-2.89383 0.37415,7.83036 0.37416,-0.17023 0.37416,-0.51067 0.37416,-1.53203 0.37415,1.02135 0.37416,-0.6809 0.37416,-4.59608 0.37416,0.85113 0.37415,-1.53203 0.37416,1.3618 0.37416,3.40451 0.74831,-11.57531 0.37416,1.19157 0.37416,8.85171 0.37416,-5.27698 0.37415,-8.00058 0.37416,6.97923 0.37416,-8.51126 0.37415,4.08541 0.37416,-3.57473 0.37416,1.02135 0.37416,-1.70225 0.37415,5.10675 0.37416,-7.83035 0.37416,-2.89383 0.37416,-1.3618 0.37415,-2.89383 0.37416,-0.51067 0.37416,-3.74496 0.74831,-4.59607 0.37416,-10.89441 0.37416,5.78765 0.37416,-6.1281 0.74831,-4.42585 0.37416,4.25562 0.37416,-0.17022 0.37415,-6.29833 0.37416,-4.25563 0.37416,2.89383 0.37416,1.87248 0.37415,-10.21351 0.37416,4.0854 0.37416,2.0427 0.37415,-0.6809 0.37416,0.51068 0.37416,6.29833 0.37416,-2.0427 0.37415,2.0427 0.37416,-1.3618 0.37416,5.78765 0.37416,-1.02135 0.37415,2.38315 0.37416,-0.34045 0.37416,2.21293 0.37416,6.29833 0.37415,-5.10676 0.74832,13.27756 0.37416,-1.19157 0.37415,1.19157 0.37416,3.57473 0.37416,1.53203 0.37416,-0.34046 0.74831,5.78766 0.37416,8.51126 0.37416,-3.57473 0.74831,6.46855 0.37416,-9.5326 0.37416,10.38373 0.37415,0.34045 0.37416,-4.25563 0.37416,11.91576 0.37415,-3.57473 0.37416,-1.3618 0.37416,4.0854 0.37416,2.7236 0.37415,-2.0427 0.37416,-4.93653 0.37416,4.25563 0.37416,2.7236 0.37415,-1.19157 0.37416,-4.93653 0.74832,14.12868 1.12247,-10.55395 0.37416,3.4045 0.37415,-3.4045 0.37416,4.42585 0.37416,6.80901 0.74831,-6.63878 0.37416,5.61742 0.37416,-2.21292 0.37416,4.0854 0.74831,-11.23486 0.37416,7.31968 0.37416,-9.36238 0.37415,5.95788 0.37416,2.89383 0.37416,-9.36238 0.37416,3.74495 v 0" />
        </g>
      </g>
      <g
         id="g6958"
         clip-path="url(#clipPath6962)"
         transform="matrix(3.083608,0,0,3.083608,-15.444947,-857.52918)">
        <path
           d="m 15.041365,305.6351 0.748315,5.73926 3.367417,29.15554 1.122472,7.32787 1.122472,5.85495 1.122473,4.6117 1.122472,3.61208 1.122472,2.82268 1.122472,2.20017 1.122473,1.70492 1.122472,1.30455 1.122472,0.97365 1.122472,0.69245 1.122473,0.44536 1.122472,0.21972 1.122472,0.005 1.122472,-0.20983 1.122473,-0.43354 1.122472,-0.67702 1.122472,-0.95231 1.122472,-1.27394 1.122473,-1.65987 1.122472,-2.13266 1.122472,-2.72008 1.122472,-3.45457 1.122473,-4.36871 1.122472,-5.48155 1.122472,-6.7653 1.122472,-8.078 2.99326,-23.28996 0.748315,-3.75134 0.374157,-1.15837 0.374157,-0.61147 0.374158,-0.0402 0.374157,0.53003 0.374158,1.0743 0.748314,3.57117 0.748315,4.98252 3.741574,27.71784 1.122473,6.16012 1.122472,4.96113 1.122472,3.93705 1.122472,3.09632 1.122473,2.41523 1.122472,1.8623 1.122472,1.40764 1.122472,1.02581 1.122473,0.69594 1.122472,0.40081 1.122472,0.12595 1.122472,-0.14151 1.122473,-0.41357 1.122472,-0.70231 1.122472,-1.02046 1.122472,-1.38204 1.122473,-1.80252 1.122472,-2.29832 1.122472,-2.8848 1.122472,-3.57093 1.122473,-4.3481 1.122472,-5.16954 1.496629,-8.01543 2.244945,-12.36976 0.748315,-3.23453 0.748315,-2.28216 0.374157,-0.70639 0.374157,-0.39037 0.374158,-0.0668 0.374157,0.2538 0.374158,0.56128 0.748315,1.94884 0.748314,2.82929 1.49663,7.09921 2.244945,10.70572 1.122472,4.4593 1.122472,3.70713 1.122472,2.98143 1.122469,2.32145 1.12248,1.73478 1.12247,1.21428 0.74831,0.54732 0.74832,0.3525 0.74831,0.16759 0.74832,-0.01 0.74831,-0.18094 0.74832,-0.34773 1.12247,-0.82596 1.12247,-1.17851 1.12247,-1.50915 1.49663,-2.45547 2.61911,-4.9559 1.49663,-2.65278 1.12247,-1.60721 0.74831,-0.81395 0.74832,-0.5813 0.74831,-0.34447 0.74832,-0.12019 0.74831,0.0774 1.12247,0.40457 1.49663,0.85869 2.99326,1.78345 1.49663,0.62446 1.49663,0.40557 1.87079,0.26299 2.6191,0.10868 10.10225,-0.0175 10.47641,-0.0814 1.87079,-0.2493 1.49662,-0.38977 1.49663,-0.60681 1.87079,-1.05039 2.99326,-1.76601 1.12247,-0.33396 0.74832,-0.0132 0.74831,0.19491 0.74832,0.42528 0.74831,0.66262 1.12247,1.41238 1.12248,1.82068 2.24494,4.23807 1.87079,3.39458 1.49663,2.25311 1.12247,1.32663 1.12247,0.98221 1.12247,0.62128 0.74832,0.20727 0.74831,0.0367 0.74832,-0.13946 0.74831,-0.32301 0.74832,-0.51612 0.74831,-0.72129 0.74832,-0.9412 1.12247,-1.86299 1.12247,-2.46616 1.12248,-3.1427 1.12247,-3.87953 1.12247,-4.6268 1.49663,-7.12246 1.87079,-9.05696 0.74831,-2.93984 0.74832,-2.10517 0.37415,-0.6532 0.37416,-0.35175 0.37416,-0.0342 0.37416,0.28957 0.37415,0.60906 0.74832,2.10948 0.74831,3.1049 1.12248,5.8617 2.99325,16.33579 1.12248,4.98202 1.12247,4.16354 1.12247,3.4049 1.12247,2.74175 1.12248,2.1772 1.12247,1.7001 1.12247,1.29456 1.12247,0.94425 1.12247,0.63402 1.12248,0.35019 1.12247,0.0802 1.12247,-0.18783 1.12247,-0.46617 1.12248,-0.76789 1.12247,-1.10804 1.12247,-1.50455 1.12247,-1.97932 1.12248,-2.55885 1.12247,-3.27379 1.12247,-4.15508 1.12247,-5.22193 1.12247,-6.45259 1.12248,-7.72412 3.36741,-24.80173 0.74832,-2.94795 0.37416,-0.70404 0.37415,-0.13927 0.37416,0.43441 0.37416,0.99153 0.74831,3.4733 0.74832,4.99785 1.87078,15.10596 1.49663,11.17848 1.12248,6.9047 1.12247,5.6085 1.12247,4.47529 1.12247,3.54091 1.12248,2.78914 1.12247,2.18797 1.12247,1.70463 1.12247,1.3108 1.12247,0.98338 1.12248,0.70398 1.12247,0.45779 1.12247,0.23253 1.12247,0.0176 1.12248,-0.197 1.12247,-0.42106 1.12247,-0.66535 1.12247,-0.94234 1.12247,-1.26722 1.12248,-1.65928 1.12247,-2.14326 1.12247,-2.75078 1.12247,-3.52078 1.12248,-4.49658 1.12247,-5.7138 1.12247,-7.16634 1.12247,-8.72873 3.36742,-28.60609 0.37416,-1.88964 0.37415,-1.289 0.37416,-0.62527 0.37416,0.0709 0.37416,0.76473 0.37415,1.4219 0.74832,4.52599 1.12247,9.51304 2.24495,20.16781 1.12247,8.20828 1.12247,6.63884 1.12247,5.25562 1.12247,4.12489 1.12248,3.22922 1.12247,2.52631 1.12247,1.9729 1.12247,1.53219 1.12248,1.17504 0.44956,0.38234 v 0"
           style="fill:none;stroke:#ff0000;stroke-width:1;stroke-linecap:square;stroke-linejoin:round;stroke-miterlimit:10;stroke-dasharray:none;stroke-opacity:1"
           id="path6964"
           inkscape:connector-curvature="0" />
      </g>
      <g
         id="g6968"
         clip-path="url(#clipPath6972)"
         transform="matrix(3.083608,0,0,3.083608,-15.444947,-857.52918)">
        <path
           d="m 15.041365,362.4832 0.374158,-4.59608 0.374157,1.87247 0.374158,-13.27755 0.374157,10.2135 0.374158,-10.38373 0.374157,0.6809 0.374157,-0.17022 0.374158,2.21292 0.374157,-6.46855 0.374158,0.34045 0.374157,-7.31968 0.374157,-0.6809 0.374158,-5.44721 0.374157,-2.7236 0.374158,0.34045 0.374157,-5.27698 0.374157,-1.02135 0.374158,-5.78765 0.374157,-1.3618 0.374158,-2.21293 0.374157,0.17023 0.374158,-7.14946 0.748314,4.42586 0.374158,-5.78766 0.374157,3.91518 0.374158,1.3618 0.374157,2.55338 0.374157,3.74495 0.374158,-1.3618 0.374157,6.63878 h 0.374158 l 0.374157,5.78765 0.374158,-3.91518 0.374157,4.08541 0.374157,8.8517 0.374158,-3.91518 0.374157,5.61743 0.748315,13.44779 0.374157,-6.63878 0.374158,8.1708 0.374157,4.08541 0.374158,2.38315 0.374157,-3.23428 0.374158,3.91518 0.374157,11.40508 0.374157,-13.78823 0.374158,7.14945 0.374157,-2.0427 0.374158,8.85171 0.374157,-2.89383 0.374157,4.0854 0.374158,-3.06405 0.748315,5.10675 0.374157,-7.14945 0.374158,8.68148 0.374157,3.06405 0.374157,-8.8517 0.374158,-1.19158 0.374157,4.59608 0.748315,1.53202 0.374157,6.97923 0.374158,-3.06405 0.374157,5.27698 0.374158,-2.89383 0.374157,-1.70225 0.374157,-9.19215 0.374158,10.2135 0.374157,-6.1281 0.374158,4.93653 0.374157,1.53202 0.374158,-2.38315 0.374157,1.3618 0.374157,8.85171 0.374158,-12.42643 0.374157,8.51125 1.122472,-5.95788 0.374158,-1.02135 0.374157,6.63878 0.374158,2.55338 0.374157,-9.36238 0.374158,-0.6809 0.374157,3.06405 0.374157,-5.95788 0.374158,7.83035 0.374157,-5.10675 0.374158,-0.17022 0.374157,2.38315 0.374157,-0.34045 0.374158,-7.48991 0.374157,6.12811 0.374158,0.51067 0.374157,-1.19157 0.374158,-6.46856 0.374157,1.87248 0.374157,8.00058 0.374158,-1.53203 0.374157,-4.0854 0.748315,-6.12811 0.374157,-5.78765 0.374158,4.0854 0.374157,-2.0427 0.374158,-4.7663 0.374157,4.25563 0.374158,-0.17023 0.374157,-8.34103 0.374157,-0.51067 0.374158,-1.36181 0.374157,-3.23427 0.374158,1.53202 0.374157,-0.51067 0.374157,-9.02193 0.374158,-0.6809 1.122472,-10.72419 0.374157,4.93653 0.374158,-9.19215 0.374157,-4.08541 0.374158,0.51068 0.374157,1.70225 0.374158,-6.29833 0.374157,-4.25563 0.374157,0.6809 0.374158,-3.74495 0.374157,-1.19158 0.374158,-0.34044 0.374157,-3.74496 0.374157,5.61743 0.374158,0.6809 0.374157,-0.51067 0.374158,2.0427 0.374157,-1.53203 0.374158,4.25563 0.374157,6.1281 0.374157,-2.21292 0.374158,6.46855 0.374157,3.91518 0.374158,-4.42585 0.374157,8.00058 0.374157,-2.38316 0.374158,15.15004 0.374157,-5.10675 0.374158,9.5326 0.374157,-7.31968 0.748315,13.95846 0.374157,-0.51067 0.374158,-3.74496 0.374157,4.42586 0.374158,0.85112 0.374157,1.87248 0.374157,4.59608 0.374158,-7.31968 0.374157,9.87305 0.374158,-6.29832 0.374157,1.3618 0.374158,4.42585 0.374157,9.19216 0.374157,-7.48991 0.374158,5.27698 0.374157,1.02135 0.374158,-5.95788 0.374157,12.08598 0.374157,-5.78765 0.374158,-3.57473 0.374157,0.34045 0.748315,6.12811 0.374157,-2.55338 0.374158,1.02135 0.374157,4.7663 0.374158,-5.10675 0.374157,7.83036 0.374158,-5.27698 0.374157,-0.85113 0.374157,2.21293 0.374158,-5.95788 0.374157,3.91518 0.374158,6.29833 0.374157,-8.68148 0.374157,6.63878 0.374158,-1.87248 0.374157,-0.6809 0.374158,1.3618 0.374157,-1.3618 0.374158,0.6809 0.374157,-3.23428 0.374157,4.0854 0.374158,-8.00058 0.374157,9.19216 0.374158,-11.57531 0.374157,11.23486 0.748315,-2.38315 0.374157,-5.10676 0.374158,4.25563 0.374157,-2.21292 0.374158,-3.74496 0.374157,5.10676 0.374157,-0.85113 0.374158,-5.27698 0.374157,-0.6809 0.748315,4.76631 0.374157,-5.10676 0.374158,4.0854 0.374157,-6.809 0.374158,-3.91518 0.374157,3.23428 0.374158,-2.21293 0.374157,-0.34045 0.374157,-1.53202 0.374158,0.6809 0.374157,-0.85113 0.374158,-4.42585 0.374157,3.4045 0.374157,-0.85112 0.374158,-13.27756 0.374157,0.34045 0.374158,1.3618 0.374161,-7.31968 0.37415,4.59608 1.12248,-14.80959 0.37415,-1.70225 0.74832,-5.95788 0.37416,-0.51068 0.37415,-3.74495 0.37416,-6.46855 0.37416,3.74495 0.37416,-9.53261 0.37415,-1.3618 0.37416,6.80901 0.37416,-4.08541 0.37415,-2.21292 0.37416,5.78765 0.37416,-0.17022 0.37416,1.02135 0.37415,2.7236 0.74832,8.17081 0.37416,-1.19158 0.37415,5.78765 0.37416,3.40451 0.74832,-3.74496 0.74831,13.61801 0.37416,-4.0854 0.37416,8.34103 0.37415,1.53203 0.37416,0.17022 0.37416,4.42585 0.37416,0.51068 0.37415,-2.55338 0.37416,7.14946 0.37416,-1.87248 0.37416,4.59608 0.37415,-5.95788 1.12248,14.46914 0.37415,1.02135 0.37416,-2.72361 0.37416,2.04271 0.37416,4.59607 0.37415,-5.95787 0.37416,4.7663 0.37416,-1.53203 0.37415,5.44721 0.37416,-3.23428 0.37416,0.6809 0.37416,3.06405 0.37415,1.53203 0.37416,-11.06463 0.37416,3.06405 0.37416,5.78765 0.37415,1.87248 0.37416,5.10675 0.37416,-3.57473 0.37416,-4.93652 0.37415,0.85112 0.37416,-1.02135 0.37416,-6.46855 0.37416,7.4899 0.37415,1.87248 0.37416,6.29833 0.37416,-4.42586 0.37416,3.23428 0.37415,-4.0854 0.37416,-1.19158 0.37416,-1.87247 0.37415,2.38315 0.37416,-0.34045 0.37416,4.93653 0.37416,-0.17023 0.37415,6.97923 0.37416,-8.00058 0.37416,-3.91518 0.37416,-0.85112 0.37415,-5.27698 0.37416,4.42585 0.37416,-1.02135 0.37416,1.70225 0.37415,0.6809 0.37416,-1.02135 0.37416,-2.21293 0.37416,-7.4899 0.37415,10.38373 0.74832,-10.72418 0.37416,9.02193 0.37415,-4.59608 0.37416,11.06464 0.37416,-6.63878 0.37415,-16.00117 0.37416,8.68149 0.37416,-4.76631 0.37416,-9.02193 0.37415,9.87306 0.37416,1.3618 0.37416,-7.66013 0.37416,3.06405 0.37415,-5.4472 0.37416,-2.21293 0.37416,4.93653 0.37416,-10.89441 h 0.37415 l 0.37416,-2.0427 0.37416,0.85113 0.37416,-5.95788 0.37415,-8.51126 0.37416,5.4472 h 0.37416 l 0.37416,-7.4899 h 0.37415 l 0.37416,-4.25563 0.37416,-2.89383 0.37416,-1.87247 0.37415,-0.6809 0.37416,-1.02135 0.37416,-10.55396 0.37416,1.19157 h 0.37415 l 0.37416,2.04271 0.37416,-0.17023 0.37415,-1.19157 0.37416,2.21292 0.74832,-1.3618 0.37415,5.61743 0.37416,2.7236 0.37416,-1.19157 0.74831,8.00058 0.37416,6.97923 0.37416,-1.19158 0.37416,7.14946 0.37415,-3.06406 0.37416,3.57473 0.37416,5.10675 0.37416,2.04271 0.37415,6.1281 0.37416,-1.87248 0.74832,7.66013 0.37415,0.34045 0.37416,8.68148 0.37416,-3.23427 h 0.37416 l 0.37415,4.59608 0.37416,1.19157 0.37416,-2.0427 0.37415,6.46855 0.37416,-3.57472 0.74832,2.89382 0.37415,-1.87247 0.37416,1.19157 0.37416,2.04271 0.37416,-4.59608 0.37415,7.31968 0.74832,-4.08541 0.37416,4.08541 0.37415,-11.06464 0.37416,8.68149 0.37416,1.53202 0.37416,3.74495 0.37415,-6.29833 0.37416,3.23428 0.37416,6.46856 0.37416,-0.85113 0.37415,-5.4472 0.37416,2.7236 0.37416,-6.46856 0.37416,-2.21292 0.37415,3.23428 0.37416,0.85112 0.37416,-1.53203 0.37416,4.42586 0.37415,8.51125 0.37416,2.04271 0.37416,-11.23486 0.37415,0.51067 0.74832,-1.53202 0.37416,1.3618 0.37415,6.46855 0.37416,-7.31968 0.37416,5.61743 0.37416,-1.53202 0.37415,6.97922 0.37416,-16.00116 0.37416,0.34045 0.37416,6.97923 0.37415,-4.7663 0.37416,6.46856 0.37416,-3.40451 0.37416,-10.72418 0.37415,2.89383 0.37416,6.97923 0.37416,1.53202 0.37416,-6.63878 0.37415,-1.53202 0.37416,-2.7236 0.37416,-4.93653 0.37416,1.19157 0.37415,-3.06405 0.37416,3.74495 0.37416,1.70225 0.37415,-8.51125 0.37416,7.31968 0.37416,-9.87306 0.37416,4.08541 0.74831,-8.17081 0.37416,-0.34045 0.37416,1.3618 0.37415,-9.19216 0.37416,10.04329 0.37416,-11.06464 0.37416,-4.0854 0.37415,-0.34045 0.37416,-5.78765 0.37416,-1.87248 0.37416,-6.12811 0.37415,2.89383 0.37416,-5.10675 0.37416,1.3618 0.37416,-1.02135 0.74831,-10.55396 0.37416,-0.17022 0.37416,1.02135 0.37415,-3.23428 0.37416,1.19158 h 0.37416 l 0.37416,-0.34045 0.37415,1.3618 0.37416,-5.27698 0.37416,6.1281 0.37415,10.04328 0.37416,-0.51067 0.37416,-2.7236 0.74831,5.61743 0.37416,4.42585 0.37416,-3.74495 0.37416,9.36238 0.37415,4.42585 0.37416,7.14946 0.37416,-1.36181 h 0.37416 l 0.37415,6.63878 0.37416,-4.0854 0.37416,9.53261 0.37416,-1.87248 0.37415,1.3618 0.37416,13.95846 0.37416,-9.87305 0.37416,9.19215 0.37415,1.3618 0.37416,-8.68148 0.37416,7.66013 0.37416,1.70225 0.37415,8.00058 0.37416,-1.53202 0.37416,-10.72418 0.74831,10.2135 0.37416,-4.25563 0.74831,-4.7663 0.37416,5.27698 0.37416,2.89383 0.37416,-4.76631 0.37415,8.17081 0.37416,3.74495 0.37416,-20.42701 0.37416,17.36296 0.37415,3.06405 0.37416,-7.14945 0.37416,6.809 0.74831,-11.06463 0.37416,13.61801 0.37416,-9.53261 0.37416,2.89383 0.37415,1.87248 0.37416,-5.27698 0.37416,6.809 0.37416,-2.38315 0.37415,-4.59608 0.37416,6.63878 0.37416,1.53203 0.37416,-12.76689 0.37415,13.95846 0.37416,-9.36238 0.37416,-1.02135 0.74831,8.17081 0.74832,-11.57531 0.37416,9.70283 0.37415,5.4472 0.37416,-9.02193 0.74831,-8.1708 0.37416,3.91517 0.37416,-4.0854 0.74831,11.74553 1.12248,-17.19273 0.74831,3.57473 0.37416,4.59607 0.37416,-2.21292 0.37415,-1.19158 0.37416,-1.87248 0.37416,0.51068 0.37416,-8.85171 0.37415,9.87306 0.37416,-1.02135 0.37416,-1.3618 0.37416,-11.91576 0.37415,0.17023 0.37416,-2.21293 0.74831,-10.04328 0.37416,3.91518 0.37416,-7.48991 0.37416,2.21293 0.37415,-2.72361 0.37416,-7.66013 0.37416,-2.38315 0.37416,-5.61743 0.37415,-3.06405 0.37416,0.6809 0.37416,-2.7236 0.37416,-6.46855 0.37415,2.21292 0.37416,-6.63878 0.37416,1.3618 0.37416,4.25563 0.37415,-5.78765 0.37416,2.38315 0.37416,-1.3618 0.37416,-0.6809 1.12247,9.36238 0.37416,2.55338 0.37415,-0.51068 0.37416,6.80901 0.74831,8.00058 0.37416,3.06405 0.37416,6.809 0.37416,-4.7663 0.74831,7.83036 0.37416,-0.85113 0.37416,0.17022 0.37415,10.21351 h 0.37416 l 0.37416,5.95788 0.37416,-4.42585 0.37415,11.74553 0.37416,-3.4045 h 0.37416 l 0.37416,5.78765 0.37415,0.34045 0.37416,-9.19215 0.37416,4.7663 0.37416,2.55338 0.37415,-3.91518 0.37416,10.38373 0.37416,-0.17022 0.37416,0.34045 0.37415,2.7236 0.37416,3.91518 0.37416,-7.66013 0.37416,9.87305 0.37415,-11.40508 0.37416,7.31968 0.37416,1.19158 0.37415,-2.55338 0.37416,-7.14946 0.37416,-0.51067 0.37416,7.4899 0.37415,2.38316 0.37416,-0.34046 0.37416,2.89383 0.37416,-4.93653 0.37415,2.89383 0.37416,4.0854 0.37416,-3.06405 0.37416,-5.10675 0.37415,9.70283 0.37416,2.38315 0.37416,-12.08598 0.37416,0.6809 0.37415,-2.7236 0.37416,-1.02135 0.37416,4.59607 0.37416,-5.78765 0.37415,9.87306 0.37416,-1.70225 0.37416,-2.38316 h 0.37416 l 0.37415,4.76631 0.37416,-13.10734 0.37416,9.87306 0.37416,-6.80901 0.37415,6.29833 0.37416,-7.14945 0.37416,0.17022 0.37416,-1.3618 0.37415,0.6809 0.37416,-2.38315 0.37416,2.55338 0.37415,-2.21293 0.37416,-0.85112 0.37416,-2.0427 0.37416,6.29832 0.37415,-3.74495 0.37416,-8.51125 0.37416,-2.04271 0.37416,4.25563 0.37415,-3.06405 0.37416,0.85113 0.37416,-0.85113 0.74831,-8.34103 h 0.37416 l 0.37416,3.91518 0.74831,-13.27756 0.37416,2.0427 0.37416,-3.06405 0.37416,-5.61743 0.37415,-3.4045 0.37416,-1.19158 0.37416,-3.74495 0.37415,-0.51068 0.74832,-9.5326 0.37416,0.51067 0.37416,-1.70225 0.37415,-4.25563 0.37416,0.51068 0.37416,-0.85113 0.37415,2.38315 0.37416,-6.809 0.37416,-0.17023 h 0.37416 l 0.74831,1.3618 0.37416,7.48991 0.37416,0.17023 0.37415,-2.38316 1.12248,16.17139 0.37415,1.87248 0.37416,0.51067 0.37416,5.44721 0.37416,0.51067 0.37415,2.55338 0.37416,4.7663 0.37416,-2.38315 0.37416,2.21293 0.37415,5.27697 0.37416,-2.7236 0.37416,8.51126 0.37415,-3.74495 0.37416,-1.53203 0.37416,5.27698 0.74831,4.59608 0.37416,4.93652 0.37416,-9.70283 0.37416,5.27698 0.37415,-2.55338 0.37416,6.29833 0.37416,-0.51067 0.37416,-1.3618 0.37415,2.38315 0.37416,-1.02135 0.37416,6.1281 0.37416,-0.17022 0.37415,1.19157 0.37416,-2.55337 0.37416,1.53202 0.37416,0.34045 h 0.37415 l 0.37416,1.87248 v 0"
           style="fill:none;stroke:#d3d3d3;stroke-width:1;stroke-linecap:square;stroke-linejoin:round;stroke-miterlimit:10;stroke-dasharray:none;stroke-opacity:1"
           id="path6974"
           inkscape:connector-curvature="0" />
      </g>
      <path
         d="M 95.564939,341.37758 H 783.82623"
         style="fill:none;stroke:#000000;stroke-width:3.08360791;stroke-linecap:square;stroke-linejoin:miter;stroke-miterlimit:10;stroke-dasharray:none;stroke-opacity:1"
         id="path6978"
         inkscape:connector-curvature="0" />
      <path
         d="M 95.564939,64.394379 H 783.82623"
         style="fill:none;stroke:#000000;stroke-width:3.08360791;stroke-linecap:square;stroke-linejoin:miter;stroke-miterlimit:10;stroke-dasharray:none;stroke-opacity:1"
         id="path6980"
         inkscape:connector-curvature="0" />
      <path
         d="M 783.82623,64.394379 V 341.37758"
         style="fill:none;stroke:#000000;stroke-width:3.08360791;stroke-linecap:square;stroke-linejoin:miter;stroke-miterlimit:10;stroke-dasharray:none;stroke-opacity:1"
         id="path6982"
         inkscape:connector-curvature="0" />
      <path
         d="M 95.564939,64.394379 V 341.37758"
         style="fill:none;stroke:#000000;stroke-width:3.08360791;stroke-linecap:square;stroke-linejoin:miter;stroke-miterlimit:10;stroke-dasharray:none;stroke-opacity:1"
         id="path6984"
         inkscape:connector-curvature="0" />
      <path
         d="M 182.88167,341.37758 V 329.04315"
         style="fill:#000000;fill-opacity:1;fill-rule:nonzero;stroke:#000000;stroke-width:1.54180396;stroke-linecap:butt;stroke-linejoin:round;stroke-miterlimit:10;stroke-dasharray:none;stroke-opacity:1"
         id="path6986"
         inkscape:connector-curvature="0" />
      <g
         id="g6988"
         transform="matrix(3.083608,0,0,3.083608,166.98181,358.19287)">
        <text
           transform="matrix(1,0,0,-1,5.8652344,0)"
           style="font-variant:normal;font-weight:normal;font-size:7px;font-family:BitstreamVeraSans;-inkscape-font-specification:BitstreamVeraSans-Roman;writing-mode:lr-tb;fill:#000000;fill-opacity:1;fill-rule:nonzero;stroke:none"
           id="text6992">
          <tspan
             x="0"
             y="0"
             id="tspan6990">2</tspan>
        </text>
        <g
           id="g6994"
           transform="scale(0.007)">
          <g
             id="g6996">
            <g
               id="g6998"
               clip-path="url(#clipPath7002)">
              <path
                 d="M 106,355 H 732 V 272 H 106 v 83"
                 style="fill:#000000;fill-opacity:1;fill-rule:nonzero;stroke:none"
                 id="path7004"
                 inkscape:connector-curvature="0" />
            </g>
          </g>
        </g>
      </g>
      <path
         d="M 311.28863,341.37758 V 329.04315"
         style="fill:#000000;fill-opacity:1;fill-rule:nonzero;stroke:#000000;stroke-width:1.54180396;stroke-linecap:butt;stroke-linejoin:round;stroke-miterlimit:10;stroke-dasharray:none;stroke-opacity:1"
         id="path7006"
         inkscape:connector-curvature="0" />
      <g
         id="g7008"
         transform="matrix(3.083608,0,0,3.083608,295.38877,358.19287)">
        <text
           transform="matrix(1,0,0,-1,5.8652344,0)"
           style="font-variant:normal;font-weight:normal;font-size:7px;font-family:BitstreamVeraSans;-inkscape-font-specification:BitstreamVeraSans-Roman;writing-mode:lr-tb;fill:#000000;fill-opacity:1;fill-rule:nonzero;stroke:none"
           id="text7012">
          <tspan
             x="0"
             y="0"
             id="tspan7010">1</tspan>
        </text>
        <g
           id="g7014"
           transform="scale(0.007)">
          <g
             id="g7016">
            <g
               id="g7018"
               clip-path="url(#clipPath7022)">
              <path
                 d="M 106,355 H 732 V 272 H 106 v 83"
                 style="fill:#000000;fill-opacity:1;fill-rule:nonzero;stroke:none"
                 id="path7024"
                 inkscape:connector-curvature="0" />
            </g>
          </g>
        </g>
      </g>
      <path
         d="M 439.69559,341.37758 V 329.04315"
         style="fill:#000000;fill-opacity:1;fill-rule:nonzero;stroke:#000000;stroke-width:1.54180396;stroke-linecap:butt;stroke-linejoin:round;stroke-miterlimit:10;stroke-dasharray:none;stroke-opacity:1"
         id="path7026"
         inkscape:connector-curvature="0" />
      <text
         transform="scale(1,-1)"
         style="font-variant:normal;font-weight:normal;font-size:21.58525467px;font-family:BitstreamVeraSans;-inkscape-font-specification:BitstreamVeraSans-Roman;writing-mode:lr-tb;fill:#000000;fill-opacity:1;fill-rule:nonzero;stroke:none;stroke-width:3.08360791"
         id="text7030"
         x="432.82977"
         y="-358.19284">
        <tspan
           x="432.82977"
           y="-358.19284"
           id="tspan7028"
           style="stroke-width:3.08360791">0</tspan>
      </text>
      <path
         d="M 568.10255,341.37758 V 329.04315"
         style="fill:#000000;fill-opacity:1;fill-rule:nonzero;stroke:#000000;stroke-width:1.54180396;stroke-linecap:butt;stroke-linejoin:round;stroke-miterlimit:10;stroke-dasharray:none;stroke-opacity:1"
         id="path7032"
         inkscape:connector-curvature="0" />
      <text
         transform="scale(1,-1)"
         style="font-variant:normal;font-weight:normal;font-size:21.58525467px;font-family:BitstreamVeraSans;-inkscape-font-specification:BitstreamVeraSans-Roman;writing-mode:lr-tb;fill:#000000;fill-opacity:1;fill-rule:nonzero;stroke:none;stroke-width:3.08360791"
         id="text7036"
         x="561.23669"
         y="-358.19284">
        <tspan
           x="561.23669"
           y="-358.19284"
           id="tspan7034"
           style="stroke-width:3.08360791">1</tspan>
      </text>
      <path
         d="M 696.5095,341.37758 V 329.04315"
         style="fill:#000000;fill-opacity:1;fill-rule:nonzero;stroke:#000000;stroke-width:1.54180396;stroke-linecap:butt;stroke-linejoin:round;stroke-miterlimit:10;stroke-dasharray:none;stroke-opacity:1"
         id="path7038"
         inkscape:connector-curvature="0" />
      <text
         transform="scale(1,-1)"
         style="font-variant:normal;font-weight:normal;font-size:21.58525467px;font-family:BitstreamVeraSans;-inkscape-font-specification:BitstreamVeraSans-Roman;writing-mode:lr-tb;fill:#000000;fill-opacity:1;fill-rule:nonzero;stroke:none;stroke-width:3.08360791"
         id="text7042"
         x="689.64362"
         y="-358.19284">
        <tspan
           x="689.64362"
           y="-358.19284"
           id="tspan7040"
           style="stroke-width:3.08360791">2</tspan>
      </text>
      <g
         id="g7044"
         transform="matrix(3.083608,0,0,3.083608,319.43488,389.99257)">
        <text
           transform="matrix(1,0,0,-1,0,0.15625)"
           style="font-variant:normal;font-weight:normal;font-size:9px;font-family:BitstreamVeraSans;-inkscape-font-specification:BitstreamVeraSans-Roman;writing-mode:lr-tb;fill:#000000;fill-opacity:1;fill-rule:nonzero;stroke:none"
           id="text7048">
          <tspan
             x="0 6.9301758 12.467285 15.996094 21.700195 27.404297 29.904785 35.608887 41.321777"
             y="0"
             sodipodi:role="line"
             id="tspan7046">Detuning</tspan>
        </text>
        <text
           transform="matrix(1,0,0,-1,44.182617,0.15625)"
           style="font-variant:normal;font-weight:normal;font-size:9px;font-family:Cmr10;-inkscape-font-specification:Cmr10;writing-mode:lr-tb;fill:#000000;fill-opacity:1;fill-rule:nonzero;stroke:none"
           id="text7052">
          <tspan
             x="0"
             y="0"
             id="tspan7050">∆</tspan>
        </text>
        <text
           transform="matrix(1,0,0,-1,51.679687,0.15625)"
           style="font-variant:normal;font-weight:normal;font-size:9px;font-family:Cmmi10;-inkscape-font-specification:Cmmi10;writing-mode:lr-tb;fill:#000000;fill-opacity:1;fill-rule:nonzero;stroke:none"
           id="text7056">
          <tspan
             x="0"
             y="0"
             id="tspan7054">/</tspan>
        </text>
        <text
           transform="matrix(1,0,0,-1,56.179687,0.15625)"
           style="font-variant:normal;font-weight:normal;font-size:9px;font-family:Cmr10;-inkscape-font-specification:Cmr10;writing-mode:lr-tb;fill:#000000;fill-opacity:1;fill-rule:nonzero;stroke:none"
           id="text7060">
          <tspan
             x="0"
             y="0"
             id="tspan7058">∆</tspan>
        </text>
        <text
           transform="matrix(1,0,0,-1,64.07853,-1.3743125)"
           style="font-variant:normal;font-weight:normal;font-size:6.30000019px;font-family:Cmmi10;-inkscape-font-specification:Cmmi10;writing-mode:lr-tb;fill:#000000;fill-opacity:1;fill-rule:nonzero;stroke:none"
           id="text7064">
          <tspan
             x="0 4.0513182 7.9119139"
             y="0"
             sodipodi:role="line"
             id="tspan7062">FSR</tspan>
        </text>
      </g>
      <path
         d="M 95.564939,64.394379 H 107.89937"
         style="fill:#000000;fill-opacity:1;fill-rule:nonzero;stroke:#000000;stroke-width:1.54180396;stroke-linecap:butt;stroke-linejoin:round;stroke-miterlimit:10;stroke-dasharray:none;stroke-opacity:1"
         id="path7066"
         inkscape:connector-curvature="0" />
      <path
         d="M 783.82623,64.394379 H 771.4918"
         style="fill:#000000;fill-opacity:1;fill-rule:nonzero;stroke:#000000;stroke-width:1.54180396;stroke-linecap:butt;stroke-linejoin:round;stroke-miterlimit:10;stroke-dasharray:none;stroke-opacity:1"
         id="path7068"
         inkscape:connector-curvature="0" />
      <text
         transform="scale(1,-1)"
         style="font-variant:normal;font-weight:normal;font-size:21.58525467px;font-family:BitstreamVeraSans;-inkscape-font-specification:BitstreamVeraSans-Roman;writing-mode:lr-tb;fill:#000000;fill-opacity:1;fill-rule:nonzero;stroke:none;stroke-width:3.08360791"
         id="text7072"
         x="48.925369"
         y="-58.444">
        <tspan
           x="48.925369 62.653591 69.5177"
           y="-58.444"
           sodipodi:role="line"
           id="tspan7070"
           style="stroke-width:3.08360791">0.2</tspan>
      </text>
      <path
         d="M 95.564939,133.64019 H 107.89937"
         style="fill:#000000;fill-opacity:1;fill-rule:nonzero;stroke:#000000;stroke-width:1.54180396;stroke-linecap:butt;stroke-linejoin:round;stroke-miterlimit:10;stroke-dasharray:none;stroke-opacity:1"
         id="path7074"
         inkscape:connector-curvature="0" />
      <path
         d="M 783.82623,133.64019 H 771.4918"
         style="fill:#000000;fill-opacity:1;fill-rule:nonzero;stroke:#000000;stroke-width:1.54180396;stroke-linecap:butt;stroke-linejoin:round;stroke-miterlimit:10;stroke-dasharray:none;stroke-opacity:1"
         id="path7076"
         inkscape:connector-curvature="0" />
      <text
         transform="scale(1,-1)"
         style="font-variant:normal;font-weight:normal;font-size:21.58525467px;font-family:BitstreamVeraSans;-inkscape-font-specification:BitstreamVeraSans-Roman;writing-mode:lr-tb;fill:#000000;fill-opacity:1;fill-rule:nonzero;stroke:none;stroke-width:3.08360791"
         id="text7080"
         x="48.925369"
         y="-127.68977">
        <tspan
           x="48.925369 62.653591 69.5177"
           y="-127.68977"
           sodipodi:role="line"
           id="tspan7078"
           style="stroke-width:3.08360791">0.4</tspan>
      </text>
      <path
         d="M 95.564939,202.886 H 107.89937"
         style="fill:#000000;fill-opacity:1;fill-rule:nonzero;stroke:#000000;stroke-width:1.54180396;stroke-linecap:butt;stroke-linejoin:round;stroke-miterlimit:10;stroke-dasharray:none;stroke-opacity:1"
         id="path7082"
         inkscape:connector-curvature="0" />
      <path
         d="M 783.82623,202.886 H 771.4918"
         style="fill:#000000;fill-opacity:1;fill-rule:nonzero;stroke:#000000;stroke-width:1.54180396;stroke-linecap:butt;stroke-linejoin:round;stroke-miterlimit:10;stroke-dasharray:none;stroke-opacity:1"
         id="path7084"
         inkscape:connector-curvature="0" />
      <text
         transform="scale(1,-1)"
         style="font-variant:normal;font-weight:normal;font-size:21.58525467px;font-family:BitstreamVeraSans;-inkscape-font-specification:BitstreamVeraSans-Roman;writing-mode:lr-tb;fill:#000000;fill-opacity:1;fill-rule:nonzero;stroke:none;stroke-width:3.08360791"
         id="text7088"
         x="48.925369"
         y="-196.93562">
        <tspan
           x="48.925369 62.653591 69.5177"
           y="-196.93562"
           sodipodi:role="line"
           id="tspan7086"
           style="stroke-width:3.08360791">0.6</tspan>
      </text>
      <path
         d="M 95.564939,272.13177 H 107.89937"
         style="fill:#000000;fill-opacity:1;fill-rule:nonzero;stroke:#000000;stroke-width:1.54180396;stroke-linecap:butt;stroke-linejoin:round;stroke-miterlimit:10;stroke-dasharray:none;stroke-opacity:1"
         id="path7090"
         inkscape:connector-curvature="0" />
      <path
         d="M 783.82623,272.13177 H 771.4918"
         style="fill:#000000;fill-opacity:1;fill-rule:nonzero;stroke:#000000;stroke-width:1.54180396;stroke-linecap:butt;stroke-linejoin:round;stroke-miterlimit:10;stroke-dasharray:none;stroke-opacity:1"
         id="path7092"
         inkscape:connector-curvature="0" />
      <text
         transform="scale(1,-1)"
         style="font-variant:normal;font-weight:normal;font-size:21.58525467px;font-family:BitstreamVeraSans;-inkscape-font-specification:BitstreamVeraSans-Roman;writing-mode:lr-tb;fill:#000000;fill-opacity:1;fill-rule:nonzero;stroke:none;stroke-width:3.08360791"
         id="text7096"
         x="48.925369"
         y="-266.18137">
        <tspan
           x="48.925369 62.653591 69.5177"
           y="-266.18137"
           sodipodi:role="line"
           id="tspan7094"
           style="stroke-width:3.08360791">0.8</tspan>
      </text>
      <path
         d="M 95.564939,341.37758 H 107.89937"
         style="fill:#000000;fill-opacity:1;fill-rule:nonzero;stroke:#000000;stroke-width:1.54180396;stroke-linecap:butt;stroke-linejoin:round;stroke-miterlimit:10;stroke-dasharray:none;stroke-opacity:1"
         id="path7098"
         inkscape:connector-curvature="0" />
      <path
         d="M 783.82623,341.37758 H 771.4918"
         style="fill:#000000;fill-opacity:1;fill-rule:nonzero;stroke:#000000;stroke-width:1.54180396;stroke-linecap:butt;stroke-linejoin:round;stroke-miterlimit:10;stroke-dasharray:none;stroke-opacity:1"
         id="path7100"
         inkscape:connector-curvature="0" />
      <text
         transform="scale(1,-1)"
         style="font-variant:normal;font-weight:normal;font-size:21.58525467px;font-family:BitstreamVeraSans;-inkscape-font-specification:BitstreamVeraSans-Roman;writing-mode:lr-tb;fill:#000000;fill-opacity:1;fill-rule:nonzero;stroke:none;stroke-width:3.08360791"
         id="text7104"
         x="48.925369"
         y="-335.42715">
        <tspan
           x="48.925369 62.653591 69.5177"
           y="-335.42715"
           sodipodi:role="line"
           id="tspan7102"
           style="stroke-width:3.08360791">1.0</tspan>
      </text>
      <text
         transform="matrix(0,1,1,0,0,0)"
         style="font-variant:normal;font-weight:normal;font-size:27.75247192px;font-family:BitstreamVeraSans;-inkscape-font-specification:BitstreamVeraSans-Roman;writing-mode:lr-tb;fill:#000000;fill-opacity:1;fill-rule:nonzero;stroke:none;stroke-width:3.08360791"
         id="text7108"
         x="111.24496"
         y="27.725563">
        <tspan
           x="111.24496 128.20178 139.60797 156.62032 174.21536 188.67439 215.70528 223.42052 237.87952 252.33856 260.0538 277.0383"
           y="27.725563"
           sodipodi:role="line"
           id="tspan7106"
           style="stroke-width:3.08360791">Transmission</tspan>
      </text>
      <path
         style="fill:none;stroke:#000000;stroke-width:3.45757294px;stroke-linecap:butt;stroke-linejoin:miter;stroke-opacity:0.57556272"
         d="m 182.88025,342.66089 c -0.0633,-275.934281 0.0213,-277.058386 0.0213,-277.058386"
         id="path35317"
         inkscape:connector-curvature="0" />
      <path
         style="fill:none;stroke:#000000;stroke-width:3.45757294px;stroke-linecap:butt;stroke-linejoin:miter;stroke-opacity:0.57556272"
         d="m 311.28863,341.37758 c -0.0632,-275.934284 0.0215,-277.058377 0.0215,-277.058377"
         id="path35317-8"
         inkscape:connector-curvature="0" />
      <path
         style="fill:none;stroke:#000000;stroke-width:3.45757294px;stroke-linecap:butt;stroke-linejoin:miter;stroke-opacity:0.57556272"
         d="m 439.69559,341.37758 c -0.0632,-275.934284 0.0215,-277.058377 0.0215,-277.058377"
         id="path35317-0"
         inkscape:connector-curvature="0" />
      <path
         style="fill:none;stroke:#000000;stroke-width:3.45757294px;stroke-linecap:butt;stroke-linejoin:miter;stroke-opacity:0.57556272"
         d="m 568.10257,341.37758 c -0.0632,-275.934284 0.0217,-277.058377 0.0217,-277.058377"
         id="path35317-4"
         inkscape:connector-curvature="0" />
      <path
         style="fill:none;stroke:#000000;stroke-width:3.45757294px;stroke-linecap:butt;stroke-linejoin:miter;stroke-opacity:0.57556272"
         d="M 696.5095,341.37758 C 696.4463,65.443296 696.5311,64.319203 696.5311,64.319203"
         id="path35317-6"
         inkscape:connector-curvature="0" />
    </g>
  </g>
</svg>
